<?xml version="1.0" encoding="UTF-8" standalone="no"?>
<!DOCTYPE svg PUBLIC "-//W3C//DTD SVG 1.1//EN" "http://www.w3.org/Graphics/SVG/1.1/DTD/svg11.dtd">
<svg width="100%" height="100%" viewBox="0 0 615 350" version="1.1" xmlns="http://www.w3.org/2000/svg" xmlns:xlink="http://www.w3.org/1999/xlink" xml:space="preserve" xmlns:serif="http://www.serif.com/" style="fill-rule:evenodd;clip-rule:evenodd;stroke-miterlimit:10;">
    <g>
        <g>
            <g id="Layer_1">
                <g transform="matrix(0.77943,0,0,1,94.117,0)">
                    <rect x="426.7" y="-45" width="258" height="426" style="fill:rgb(217,217,217);"/>
                </g>
                <g>
                    <path d="M485.5,335.5C391.3,492.2 219.7,597 23.5,597C-274,597 -515.2,355.8 -515.2,58.3C-515.2,-239.2 -274,-480.4 23.5,-480.4C321,-480.4 562.2,-239.2 562.2,58.3C562.2,159.7 534.2,254.5 485.5,335.5Z" style="fill:white;fill-rule:nonzero;stroke:rgb(51,51,51);stroke-width:3px;"/>
                    <path d="M562.2,58.3L23.5,58.3L485.5,335.5" style="fill:none;fill-rule:nonzero;stroke:rgb(51,51,51);stroke-width:3px;"/>
                </g>
                <g>
                    <g>
                        <path d="M282.7,130.6L284.2,131" style="fill:none;fill-rule:nonzero;stroke:rgb(8,181,0);stroke-width:2px;"/>
                        <path d="M287.1,131.8L512.8,195.2" style="fill:none;fill-rule:nonzero;stroke:rgb(8,181,0);stroke-width:2px;stroke-dasharray:3.02,3.02;"/>
                        <path d="M514.2,195.6L515.7,196" style="fill:none;fill-rule:nonzero;stroke:rgb(8,181,0);stroke-width:2px;"/>
                    </g>
                </g>
                <g>
                    <path d="M461.7,321.2C507.9,244.4 534.4,154.5 534.4,58.3" style="fill:none;fill-rule:nonzero;stroke:rgb(211,0,232);stroke-width:2px;stroke-dasharray:3,3;"/>
                    <path d="M292.5,58.3C292.5,109 278.5,156.4 254.1,196.9" style="fill:none;fill-rule:nonzero;stroke:rgb(19,113,255);stroke-width:2px;stroke-dasharray:3,3;"/>
                </g>
                <g>
                    <path d="M398.9,163C403.1,143.4 408.1,132.6 422.2,118.5L515.6,195.9" style="fill:none;fill-rule:nonzero;stroke:rgb(255,153,51);stroke-width:2px;stroke-dasharray:3,3;"/>
                </g>
                <g transform="matrix(0.96241,0.271597,-0.271597,0.96241,322.112,154.395)">
                    <text x="0px" y="0px" style="font-family:'ArialMT', 'Arial', sans-serif;font-size:45.195px;">item.label</text>
                </g>
            </g>
            <g id="Annotations">
                <g transform="matrix(1,0,0,1,368.513,34.1416)">
                    <text x="10.378px" y="0px" style="font-family:'ArialMT', 'Arial', sans-serif;font-size:17px;">lineWidth</text>
                </g>
                <path d="M438.012,39.285L454.8,53.9" style="fill:none;fill-rule:nonzero;stroke:black;stroke-width:1px;"/>
                <g transform="matrix(1,0,0,1,483.502,34.248)">
                    <text x="7.229px" y="0px" style="font-family:'ArialMT', 'Arial', sans-serif;font-size:17px;">radius</text>
                </g>
                <path d="M555.3,35.8L541.28,30.418" style="fill:none;fill-rule:nonzero;stroke:black;stroke-width:1px;"/>
                <g transform="matrix(1,0,0,1,588.51,64.1274)">
                    <text x="0px" y="0px" style="font-family:'Monaco';font-size:14.867px;">0°</text>
                </g>
                <path d="M568.9,58.3L584.8,58.3" style="fill:none;fill-rule:nonzero;stroke:black;stroke-width:1px;"/>
                <g transform="matrix(1,0,0,1,122.904,81.6514)">
                    <text x="1.847px" y="0px" style="font-family:'ArialMT', 'Arial', sans-serif;font-size:17px;">itemLabelMaxRadius</text>
                </g>
                <g transform="matrix(1,0,0,1,284.073,189.604)">
                    <text x="0px" y="0px" style="font-family:'ArialMT', 'Arial', sans-serif;font-size:17px;">itemLabel</text>
                    <text x="0px" y="17px" style="font-family:'ArialMT', 'Arial', sans-serif;font-size:17px;">BaselineOf<tspan x="82.85px 87.573px " y="17px 17px ">fs</tspan>et</text>
                </g>
                <g transform="matrix(1,0,0,1,287.272,322.182)">
                    <text x="7.197px" y="0px" style="font-family:'ArialMT', 'Arial', sans-serif;font-size:17px;">itemLabelRadius</text>
                </g>
                <g transform="matrix(1,0,0,1,359.128,246.984)">
                    <text x="13.391px" y="0px" style="font-family:'ArialMT', 'Arial', sans-serif;font-size:17px;">itemLabelAlign</text>
                </g>
                <path d="M466.532,231.522L490,211.9" style="fill:none;fill-rule:nonzero;stroke:black;stroke-width:1px;"/>
                <g transform="matrix(1,0,0,1,-169.419,-64.2049)">
                    <path d="M467.233,240.306L467.219,204.052L479.43,202.18" style="fill:none;fill-rule:nonzero;stroke:black;stroke-width:1px;"/>
                </g>
                <g transform="matrix(1,0,0,1,2,0)">
                    <path d="M461.9,307.9L424,316.7" style="fill:none;fill-rule:nonzero;stroke:black;stroke-width:1px;"/>
                </g>
                <path d="M283,95.5L271.2,87" style="fill:none;fill-rule:nonzero;stroke:black;stroke-width:1px;"/>
                <g transform="matrix(0.968381,0.249474,-0.249474,0.968381,33.4056,-55.2719)">
                    <g transform="matrix(-0.584486,-0.811404,0.811404,-0.584486,403.99,396.305)">
                        <path d="M284.186,96.354L269.643,85.878" style="fill:none;fill-rule:nonzero;stroke:black;stroke-width:1px;"/>
                    </g>
                    <g transform="matrix(0.370555,-0.370555,0.370555,0.370555,155.382,188.75)">
                        <path d="M323.892,117.675L323.892,109.748L315.964,109.748" style="fill:none;stroke:black;stroke-width:1.91px;stroke-linecap:square;stroke-linejoin:round;stroke-miterlimit:1.5;"/>
                    </g>
                    <g transform="matrix(-0.370555,0.370555,-0.370555,-0.370555,476.757,47.8437)">
                        <path d="M324.061,117.507L324.061,109.579L316.133,109.579" style="fill:none;stroke:black;stroke-width:1.91px;stroke-linecap:square;stroke-linejoin:round;stroke-miterlimit:1.5;"/>
                    </g>
                </g>
                <g transform="matrix(0.9943,-0.1067,0.1067,0.9943,-8.9709,31.3706)">
                    <circle cx="288.6" cy="99.5" r="6.8" style="fill:none;stroke:black;stroke-width:1px;"/>
                </g>
                <g transform="matrix(0.9943,-0.1067,0.1067,0.9943,-27.9621,51.7348)">
                    <circle cx="468.3" cy="305.8" r="6.8" style="fill:none;stroke:black;stroke-width:1px;"/>
                </g>
                <g transform="matrix(0.9943,-0.1067,0.1067,0.9943,-3.5927,49.4704)">
                    <circle cx="460.4" cy="58.3" r="6.8" style="fill:none;stroke:black;stroke-width:1px;"/>
                </g>
                <g transform="matrix(0.9943,-0.1067,0.1067,0.9943,-0.7912,60.1915)">
                    <circle cx="561.9" cy="37.5" r="6.8" style="fill:none;stroke:black;stroke-width:1px;"/>
                </g>
                <g transform="matrix(1,0,0,1,338.231,96.48)">
                    <text x="7.32px" y="0px" style="font-family:'ArialMT', 'Arial', sans-serif;font-size:17px;">itemLabelRotation</text>
                </g>
                <path d="M418.1,113L408.5,101.3" style="fill:none;fill-rule:nonzero;stroke:black;stroke-width:1px;"/>
                <g transform="matrix(0.9943,-0.1067,0.1067,0.9943,-10.2428,45.723)">
                    <circle cx="422" cy="118.5" r="6.8" style="fill:none;stroke:black;stroke-width:1px;"/>
                </g>
                <g>
                    <g>
                        <path d="M529,166.1L514.1,218.7L451.2,201" style="fill:none;fill-rule:nonzero;stroke:black;stroke-width:1px;"/>
                        <g>
                            <path d="M455.5,198L455.9,198.9L451.6,201.1L454.1,205.3L453.3,205.9L450.2,200.7L455.5,198Z" style="fill-rule:nonzero;"/>
                        </g>
                    </g>
                </g>
            </g>
        </g>
    </g>
</svg>
