<?xml version="1.0" encoding="UTF-8" standalone="no"?>
<!DOCTYPE svg PUBLIC "-//W3C//DTD SVG 1.1//EN" "http://www.w3.org/Graphics/SVG/1.1/DTD/svg11.dtd">
<svg width="100%" height="100%" viewBox="0 0 620 350" version="1.1" xmlns="http://www.w3.org/2000/svg" xmlns:xlink="http://www.w3.org/1999/xlink" xml:space="preserve" xmlns:serif="http://www.serif.com/" style="fill-rule:evenodd;clip-rule:evenodd;stroke-miterlimit:10;">
    <g>
        <g id="Background">
            <rect x="423.7" y="-45" width="201.093" height="426" style="fill:#d9d9d9;"/>
            <path d="M474.5,335.5C380.3,492.2 208.7,597 12.5,597C-285,597 -526.2,355.8 -526.2,58.3C-526.2,-239.2 -285,-480.4 12.5,-480.4C310,-480.4 551.2,-239.2 551.2,58.3C551.2,159.7 523.2,254.5 474.5,335.5Z" style="fill:#fff;fill-rule:nonzero;stroke:#333;stroke-width:3px;"/>
            <path d="M551.2,58.3L12.5,58.3L474.5,335.5" style="fill:none;fill-rule:nonzero;stroke:#333;stroke-width:3px;"/>
            <path d="M276.1,131.8L501.8,195.2" style="fill:none;fill-rule:nonzero;stroke:#08b500;stroke-width:2px;stroke-dasharray:3.02,3.02;"/>
            <path d="M281.5,58.3C281.5,109 268.687,157.166 243.5,196.9" style="fill:none;fill-rule:nonzero;stroke:#1371ff;stroke-width:2px;stroke-dasharray:3,3;"/>
            <path d="M387.9,163C392.1,143.4 397.1,132.6 411.2,118.5L504.6,195.9" style="fill:none;fill-rule:nonzero;stroke:#f93;stroke-width:2px;stroke-dasharray:3,3;"/>
            <g>
                <g transform="matrix(0.962411,0.271597,-0.271597,0.962411,53.6276,-78.6936)">
                    <text x="311.112px" y="154.395px" style="font-family:'ArialMT', 'Arial', sans-serif;font-size:45.195px;">item.label</text>
                </g>
            </g>
            <path d="M450.918,321.351C456.007,312.773 462.49,300.762 467.078,291.863C503.085,222.032 523.4,142.615 523.4,58.3" style="fill:none;fill-rule:nonzero;stroke:#d300e8;stroke-width:1.96px;stroke-dasharray:2.94,2.94;"/>
        </g>
        <g id="Annotations">
            <text x="340.565px" y="34.164px" style="font-family:'ArialMT', 'Arial', sans-serif;font-size:17px;">lineWidth</text>
            <path d="M399.686,39.308L416.474,53.923" style="fill:none;fill-rule:nonzero;stroke:#000;stroke-width:1px;"/>
            <path d="M544.3,36.8L530.28,31.418" style="fill:none;fill-rule:nonzero;stroke:#000;stroke-width:1px;"/>
            <text x="581.51px" y="64.127px" style="font-family:'Monaco';font-size:14.867px;">0°</text>
            <path d="M557.258,58.3L577.8,58.3" style="fill:none;fill-rule:nonzero;stroke:#000;stroke-width:1px;"/>
            <text x="97.494px" y="86.309px" style="font-family:'ArialMT', 'Arial', sans-serif;font-size:17px;">itemLabelRadiusMax</text>
            <g>
                <text x="98.163px" y="244.796px" style="font-family:'ArialMT', 'Arial', sans-serif;font-size:17px;">itemLabelBaselineOf</text>
                <text x="254.724px" y="244.796px" style="font-family:'ArialMT', 'Arial', sans-serif;font-size:17px;">fset</text>
            </g>
            <text x="284.604px" y="321.152px" style="font-family:'ArialMT', 'Arial', sans-serif;font-size:17px;">itemLabelRadius</text>
            <text x="450.014px" y="26.409px" style="font-family:'ArialMT', 'Arial', sans-serif;font-size:17px;">borderWidth</text>
            <text x="559.791px" y="82.381px" style="font-family:'ArialMT', 'Arial', sans-serif;font-size:17px;">(North)</text>
            <text x="517.706px" y="292.594px" style="font-family:'ArialMT', 'Arial', sans-serif;font-size:17px;">radius</text>
            <text x="361.519px" y="246.984px" style="font-family:'ArialMT', 'Arial', sans-serif;font-size:17px;">itemLabelAlign</text>
            <path d="M455.532,231.522L479,211.9" style="fill:none;fill-rule:nonzero;stroke:#000;stroke-width:1px;"/>
            <path d="M268.038,227.433L286.8,139.847L299.011,137.975" style="fill:none;fill-rule:nonzero;stroke:#000;stroke-width:1px;"/>
            <path d="M453.94,306.367L416.04,315.167" style="fill:none;fill-rule:nonzero;stroke:#000;stroke-width:1px;"/>
            <path d="M273.094,87.591L259.161,83.426" style="fill:none;fill-rule:nonzero;stroke:#000;stroke-width:1px;"/>
            <g>
                <path d="M301.189,129.518L296.718,146.874" style="fill:none;fill-rule:nonzero;stroke:#000;stroke-width:1px;"/>
                <path d="M303.301,133.095L301.189,129.518L297.612,131.63" style="fill:none;stroke:#000;stroke-width:1px;stroke-linecap:square;stroke-linejoin:round;stroke-miterlimit:1.5;"/>
                <path d="M294.606,143.297L296.718,146.875L300.296,144.763" style="fill:none;stroke:#000;stroke-width:1px;stroke-linecap:square;stroke-linejoin:round;stroke-miterlimit:1.5;"/>
            </g>
            <path d="M276.799,83.395C280.193,81.794 284.249,83.25 285.85,86.645C287.45,90.039 285.994,94.095 282.6,95.696C279.205,97.297 275.149,95.84 273.549,92.446C271.948,89.051 273.404,84.996 276.799,83.395Z" style="fill:none;stroke:#000;stroke-width:1px;"/>
            <path d="M459.612,297.53C463.344,297.129 466.698,299.834 467.099,303.565C467.499,307.297 464.795,310.652 461.063,311.052C457.332,311.453 453.977,308.748 453.576,305.017C453.176,301.285 455.88,297.93 459.612,297.53Z" style="fill:none;stroke:#000;stroke-width:1px;"/>
            <path d="M421.352,51.575C425.084,51.174 428.439,53.879 428.839,57.611C429.24,61.342 426.535,64.697 422.804,65.097C419.072,65.498 415.717,62.793 415.317,59.062C414.916,55.33 417.621,51.975 421.352,51.575Z" style="fill:none;stroke:#000;stroke-width:1px;"/>
            <path d="M550.182,31.762C553.913,31.361 557.268,34.066 557.668,37.797C558.069,41.529 555.364,44.884 551.633,45.284C547.901,45.685 544.546,42.98 544.146,39.249C543.746,35.517 546.45,32.162 550.182,31.762Z" style="fill:none;stroke:#000;stroke-width:1px;"/>
            <path d="M515.194,270.205L527.048,279.425" style="fill:none;fill-rule:nonzero;stroke:#000;stroke-width:1px;"/>
            <path d="M508.103,273.319C504.416,272.619 501.991,269.057 502.691,265.37C503.39,261.683 506.952,259.258 510.64,259.958C514.327,260.658 516.752,264.219 516.052,267.907C515.352,271.594 511.79,274.019 508.103,273.319Z" style="fill:none;stroke:#000;stroke-width:1px;"/>
            <g>
                <text x="334.551px" y="96.48px" style="font-family:'ArialMT', 'Arial', sans-serif;font-size:17px;">itemLabelRotation</text>
            </g>
            <path d="M407.1,113L397.5,101.3" style="fill:none;fill-rule:nonzero;stroke:#000;stroke-width:1px;"/>
            <path d="M410.27,111.759C414.002,111.358 417.357,114.063 417.757,117.795C418.157,121.526 415.453,124.881 411.721,125.281C407.99,125.682 404.635,122.977 404.235,119.246C403.834,115.514 406.539,112.159 410.27,111.759Z" style="fill:none;stroke:#000;stroke-width:1px;"/>
            <g>
                <path d="M518,166.1L503.1,218.7L440.2,201" style="fill:none;fill-rule:nonzero;stroke:#000;stroke-width:1px;"/>
                <g>
                    <path d="M444.5,198L444.9,198.9L440.6,201.1L443.1,205.3L442.3,205.9L439.2,200.7L444.5,198Z" style="fill-rule:nonzero;"/>
                </g>
            </g>
        </g>
    </g>
</svg>
