<?xml version="1.0" encoding="utf-8"?>
<!-- Generator: Adobe Illustrator 21.0.2, SVG Export Plug-In . SVG Version: 6.00 Build 0)  -->
<svg version="1.1" id="Layer_1" xmlns="http://www.w3.org/2000/svg" xmlns:xlink="http://www.w3.org/1999/xlink" x="0px" y="0px"
	 width="500px" height="500px" viewBox="0 0 500 500" style="enable-background:new 0 0 500 500;" xml:space="preserve">
<g>
	<g>
		<defs>
			<circle id="SVGID_1_" cx="250" cy="250" r="52"/>
		</defs>
		<clipPath id="SVGID_2_">
			<use xlink:href="#SVGID_1_"  style="overflow:visible;"/>
		</clipPath>
		<circle style="clip-path:url(#SVGID_2_);fill:#FFFFFF;" cx="249.4" cy="249.9" r="79"/>
	</g>
	<g>
		<defs>
			<circle id="SVGID_4_" cx="250" cy="250" r="52"/>
		</defs>
		<clipPath id="SVGID_5_">
			<use xlink:href="#SVGID_4_"  style="overflow:visible;"/>
		</clipPath>
		<g style="clip-path:url(#SVGID_5_);">
			<path style="fill:#FF4757;" d="M249.6,250.2c0.4,0.8,1.6-0.3,0.8-0.8c-0.8-0.6-1.6,0.4-1.3,1.1c0.6,1.8,3.5,0.2,2.3-1.6
				c-1-1.5-3.2-0.8-3.7,0.8c-0.5,1.6,0.7,3.2,2.3,3.5c3.9,0.8,5.1-4.3,2.8-6.6c-2.5-2.5-6.5-1.3-8.1,1.6c-1.6,3-0.3,6.6,2.5,8.5
				c2.8,1.8,6.4,1.4,9-0.6c5.7-4.4,3.9-12.8-1.7-16.2c-5.9-3.6-13.2-1-16.9,4.4c-3.9,5.6-2.8,12.9,1.3,18.1c4,5,10.6,7.5,17,6.4
				c6.4-1.1,12.1-5.5,15.2-11.2c3.1-5.8,3.4-12.6,1.1-18.8c-2.3-6-6.8-11.1-12.4-14.3c-5.6-3.2-12.2-4.3-18.5-3.2
				c-6.4,1.2-12.6,4.5-17.2,9.1c-4.5,4.4-7.9,10.1-9.5,16.2c-1.7,6.3-1.5,13,0.5,19.2c1.9,6.3,5.4,12.1,10,16.8
				c4.4,4.6,9.8,8.2,15.7,10.6c5.9,2.3,12.4,3.3,18.8,2.9c6.7-0.4,13.1-2.5,19.1-5.6c5.8-3,10.9-7,15.2-11.9
				c4.3-4.7,7.6-10.2,10-16.1c1.2-2.8,2.1-5.8,2.7-8.8l17.8-0.8c-1.4,8.4-4.4,16.5-8.8,23.9c-4.3,7.2-9.9,13.5-16.5,18.7
				s-14.2,9.1-22.2,11.6c-8.4,2.5-17.3,3.6-26,2.6c-8.5-0.9-16.7-3.9-23.9-8.6c-7-4.6-12.8-10.7-17-17.9c-4.4-7.4-7-15.8-7.5-24.4
				c-0.5-8.7,1.3-17.4,5.6-25c4.1-7.2,10.3-13.2,17.7-17.1c7.6-4,16.7-5.9,25.2-4.6c8.4,1.2,16.2,5.5,21.7,12
				c5.5,6.5,8.5,15.1,8.3,23.7c-0.3,8.5-4.6,16.6-11.6,21.5c-6.9,5-16.4,7-24.5,3.8c-8-3.1-13.6-10.7-14.2-19.3
				c-0.6-8.7,5-16.9,13.6-19c8.7-2.1,17.8,3.4,18.5,12.6c0.3,4.4-1.6,8.5-5.3,10.9c-3.6,2.3-8.5,2.4-11.9-0.3
				c-3.3-2.7-4.5-7.9-1.9-11.4c2.6-3.4,8.3-4.2,10.8-0.3c1.2,1.8,1.3,4.2,0,5.9c-1.3,1.7-3.7,2.5-5.6,1.4c-1.8-1.1-2.6-3.8-1-5.4
				c1.5-1.5,4.8-0.8,4.5,1.7c-0.3,2.7-4.4,1.8-3.3-0.3c0.5-0.8,2.1-0.8,2.1,0.3c-0.1,1.9-2.4-0.3-0.9-0.3"/>
			<path style="fill:#FF4757;" d="M250.4,249.8c-0.4-0.9-1.6,0.3-0.8,0.8c0.8,0.6,1.6-0.3,1.3-1.1c-0.6-1.8-3.3-0.3-2.4,1.5
				c0.9,1.7,3.2,1,3.8-0.5c0.6-1.6-0.7-3.3-2.2-3.6c-3.9-0.8-5.1,4.4-2.7,6.8c2.6,2.5,6.7,1,8.1-2c1.5-3.1-0.2-6.7-2.9-8.4
				c-6.4-3.8-13.5,3.3-12.1,10c1.4,6.8,9,10.5,15.3,8s10-9,9-15.7c-1.1-6.5-6.4-12-12.6-13.7c-6.5-1.8-13.5,0.4-18.4,4.9
				c-4.9,4.4-7.5,10.8-7.3,17.3c0.3,6.6,3.6,13.1,8.4,17.6c4.7,4.4,10.9,7.2,17.3,7.6c6.7,0.5,13.4-1.7,19-5.4
				c5.4-3.6,9.8-8.7,12.5-14.6c2.7-5.9,3.8-12.6,2.8-19.1c-0.9-6.7-3.8-13.1-7.7-18.5c-3.9-5.2-8.8-9.5-14.5-12.6
				c-5.7-3.1-12.1-4.9-18.5-5.2c-6.8-0.3-13.5,1-19.7,3.6c-6.1,2.5-11.7,6.2-16.6,10.8c-4.7,4.4-8.5,9.7-11.4,15.6
				c-2.8,5.8-4.7,12.1-5.3,18.5l-16.6-6.4c0.8-4.1,1.8-8,3.3-11.9c2.9-7.8,7.4-15.1,12.9-21.3c5.5-6.3,12.3-11.5,19.7-15.3
				c7.6-3.9,15.9-6.4,24.4-7.2c8.7-0.8,17.5,0,25.8,3c7.9,2.9,15,7.6,20.8,13.7s10,13.5,12.5,21.4c2.5,8.3,3.3,17.4,1.3,26
				c-1.9,8.2-6.2,15.7-12.2,21.5c-6.1,5.9-13.8,9.9-22.1,11.4c-8.6,1.6-17.5,0.6-25.2-3.7c-7.3-4.1-13-10.8-15.8-18.7
				c-2.9-8.2-2.8-17.5,1.3-25.2c4-7.4,11.3-12.7,19.6-14.2c8.5-1.5,17.3,1.3,22.7,8.4c5.2,6.8,6.4,16.7,1.3,23.9
				c-4.9,6.9-15.1,10-22.4,5.1c-7.2-4.8-9.1-16.2-1.4-21.4c3.5-2.4,8.5-2.8,12-0.1c3.4,2.6,4.9,7.7,2.3,11.4
				c-2.4,3.6-8.1,4.6-10.8,0.8c-1.3-1.7-1.5-4.1-0.4-5.9c1.1-1.8,3.4-2.8,5.4-1.9c1.9,0.8,3.1,3.4,1.8,5.3c-1.3,1.8-4.5,1.6-4.8-0.8
				c-0.4-3,4.3-2.6,3.3-0.3c-0.4,1-2.2,1.1-2.1-0.2c0.1-1.9,2.4,0.2,0.9,0.3"/>
		</g>
	</g>
	<g>
		<defs>
			<circle id="SVGID_6_" cx="250" cy="250" r="52"/>
		</defs>
		<clipPath id="SVGID_7_">
			<use xlink:href="#SVGID_6_"  style="overflow:visible;"/>
		</clipPath>
		<circle style="clip-path:url(#SVGID_7_);fill:#FF4757;" cx="250" cy="250" r="3.2"/>
	</g>
</g>
<g>
	<defs>
		<circle id="SVGID_3_" cx="250" cy="250" r="52"/>
	</defs>
	<clipPath id="SVGID_8_">
		<use xlink:href="#SVGID_3_"  style="overflow:visible;"/>
	</clipPath>
	<use xlink:href="#SVGID_3_"  style="overflow:visible;fill:none;stroke:#FFFFFF;stroke-miterlimit:10;"/>
</g>
</svg>
