<?xml version="1.0" encoding="UTF-8" standalone="no"?>
<!DOCTYPE svg PUBLIC "-//W3C//DTD SVG 1.1//EN" "http://www.w3.org/Graphics/SVG/1.1/DTD/svg11.dtd">
<svg version="1.1" xmlns="http://www.w3.org/2000/svg" xmlns:xlink="http://www.w3.org/1999/xlink" preserveAspectRatio="xMidYMid meet" viewBox="0 0 500 500" width="500" height="500"><defs><path d="M250 129.34L250 271.94" id="cjSOWmamv"></path><path d="M490 250C490 382.46 382.46 490 250 490C117.54 490 10 382.46 10 250C10 117.54 117.54 10 250 10C382.46 10 490 117.54 490 250Z" id="c2zeLxf6AB"></path><path d="M468 250C468 370.32 370.32 468 250 468C129.68 468 32 370.32 32 250C32 129.69 129.68 32 250 32C370.32 32 468 129.69 468 250Z" id="hIt6nDzSO"></path><path d="M285.6 249.4C285.6 271.83 269.66 290 250 290C230.34 290 214.4 271.83 214.4 249.4C214.4 226.98 230.34 208.8 250 174.61C269.66 208.8 285.6 226.98 285.6 249.4Z" id="dxAGfSfB"></path><linearGradient id="gradientc1sMWOPI5Z" gradientUnits="userSpaceOnUse" x1="269.48" y1="209.37" x2="231.32" y2="209.37"><stop style="stop-color: #c98f1f;stop-opacity: 1" offset="0%"></stop><stop style="stop-color: #ffe07d;stop-opacity: 1" offset="48.11357038194152%"></stop><stop style="stop-color: #f3c261;stop-opacity: 1" offset="100%"></stop></linearGradient><path d="M295 250C295 274.84 274.84 295 250 295C225.17 295 205 274.84 205 250C205 225.17 225.17 205 250 205C274.84 205 295 225.17 295 250Z" id="g2XZ8yZWoh"></path><radialGradient id="gradientbaBS2Fa1" gradientUnits="userSpaceOnUse" cx="250" cy="250" dx="261.88" dy="207.89" r="43.76"><stop style="stop-color: #fff2c9;stop-opacity: 1" offset="0%"></stop><stop style="stop-color: #fada82;stop-opacity: 1" offset="55.215487226227545%"></stop><stop style="stop-color: #efc45d;stop-opacity: 1" offset="82.21916203325017%"></stop><stop style="stop-color: #c98f1f;stop-opacity: 1" offset="100%"></stop></radialGradient><path d="M269.67 10.8L279.35 11.78L288.91 13.15L298.34 14.88L307.64 16.98L316.81 19.44L325.82 22.25L334.68 25.4L343.38 28.88L351.9 32.68L360.25 36.81L368.41 41.24L376.38 45.98L384.14 51.02L391.7 56.34L399.04 61.93L406.15 67.81L413.03 73.94L419.67 80.33L426.06 86.97L432.2 93.85L438.07 100.96L443.67 108.3L448.99 115.86L454.02 123.62L458.76 131.59L463.19 139.75L467.32 148.1L471.12 156.62L474.61 165.32L477.75 174.18L480.56 183.19L483.02 192.36L485.12 201.66L486.85 211.1L488.22 220.66L489.2 230.33L489.8 240.12L490 250L489.8 259.89L489.2 269.68L488.22 279.35L486.85 288.91L485.12 298.35L483.02 307.65L480.56 316.81L477.75 325.83L474.61 334.69L471.12 343.38L467.32 351.91L463.19 360.26L458.76 368.42L454.02 376.39L448.99 384.15L443.67 391.71L438.07 399.04L432.2 406.16L426.06 413.04L419.67 419.68L413.03 426.07L406.15 432.2L399.04 438.07L391.7 443.67L384.14 448.99L376.38 454.02L368.41 458.76L360.25 463.2L351.9 467.32L343.38 471.13L334.68 474.61L325.82 477.76L316.81 480.57L307.64 483.02L298.34 485.12L288.91 486.86L279.35 488.22L269.67 489.21L259.88 489.8L250 490L240.11 489.8L230.33 489.21L220.65 488.22L211.09 486.86L201.65 485.12L192.35 483.02L183.19 480.57L174.17 477.76L165.31 474.61L156.62 471.13L148.09 467.32L139.74 463.2L131.58 458.76L123.62 454.02L115.85 448.99L108.29 443.67L100.96 438.07L93.84 432.2L86.96 426.07L80.33 419.68L73.93 413.04L67.8 406.16L61.93 399.04L56.33 391.71L51.01 384.15L45.98 376.39L41.24 368.42L36.8 360.26L32.68 351.91L28.87 343.38L25.39 334.69L22.24 325.83L19.43 316.81L16.98 307.65L14.88 298.35L13.14 288.91L11.78 279.35L10.79 269.68L10.2 259.89L10 250L10.2 240.12L10.79 230.33L11.78 220.66L13.14 211.1L14.88 201.66L16.98 192.36L19.43 183.19L22.24 174.18L25.39 165.32L28.87 156.62L32.68 148.1L36.8 139.75L41.24 131.59L45.98 123.62L51.01 115.86L56.33 108.3L61.93 100.96L67.8 93.85L73.93 86.97L80.33 80.33L86.96 73.94L93.84 67.81L100.96 61.93L108.29 56.34L115.85 51.02L123.62 45.98L131.58 41.24L139.74 36.81L148.09 32.68L156.62 28.88L165.31 25.4L174.17 22.25L183.19 19.44L192.35 16.98L201.65 14.88L211.09 13.15L220.65 11.78L230.33 10.8L240.11 10.2L250 10L259.88 10.2L269.67 10.8ZM232.13 32.73L223.34 33.62L214.66 34.86L206.09 36.44L197.64 38.34L189.32 40.58L181.13 43.12L173.08 45.98L165.18 49.15L157.44 52.6L149.85 56.35L142.44 60.38L135.2 64.68L128.15 69.26L121.29 74.09L114.62 79.17L108.16 84.51L101.91 90.08L95.88 95.88L90.08 101.92L84.51 108.16L79.17 114.63L74.09 121.29L69.25 128.15L64.68 135.21L60.38 142.44L56.35 149.86L52.6 157.44L49.15 165.18L45.98 173.08L43.12 181.13L40.57 189.32L38.34 197.64L36.43 206.09L34.86 214.66L33.62 223.35L32.73 232.13L32.18 241.02L32 250L32.18 258.98L32.73 267.87L33.62 276.66L34.86 285.34L36.43 293.91L38.34 302.37L40.57 310.69L43.12 318.88L45.98 326.93L49.15 334.82L52.6 342.57L56.35 350.15L60.38 357.56L64.68 364.8L69.25 371.85L74.09 378.72L79.17 385.38L84.51 391.84L90.08 398.09L95.88 404.12L101.91 409.93L108.16 415.5L114.62 420.83L121.29 425.92L128.15 430.75L135.2 435.32L142.44 439.63L149.85 443.66L157.44 447.4L165.18 450.86L173.08 454.02L181.13 456.88L189.32 459.43L197.64 461.66L206.09 463.57L214.66 465.15L223.34 466.39L232.13 467.28L241.02 467.82L250 468L258.98 467.82L267.87 467.28L276.66 466.39L285.34 465.15L293.91 463.57L302.36 461.66L310.69 459.43L318.88 456.88L326.92 454.02L334.82 450.86L342.57 447.4L350.15 443.66L357.56 439.63L364.8 435.32L371.85 430.75L378.72 425.92L385.38 420.83L391.84 415.5L398.09 409.93L404.12 404.12L409.93 398.09L415.5 391.84L420.83 385.38L425.92 378.72L430.75 371.85L435.32 364.8L439.63 357.56L443.65 350.15L447.4 342.57L450.86 334.82L454.02 326.93L456.88 318.88L459.43 310.69L461.66 302.37L463.57 293.91L465.15 285.34L466.39 276.66L467.28 267.87L467.82 258.98L468 250L467.82 241.02L467.28 232.13L466.39 223.35L465.15 214.66L463.57 206.09L461.66 197.64L459.43 189.32L456.88 181.13L454.02 173.08L450.86 165.18L447.4 157.44L443.65 149.86L439.63 142.44L435.32 135.21L430.75 128.15L425.92 121.29L420.83 114.63L415.5 108.16L409.93 101.92L404.12 95.88L398.09 90.08L391.84 84.51L385.38 79.17L378.72 74.09L371.85 69.26L364.8 64.68L357.56 60.38L350.15 56.35L342.57 52.6L334.82 49.15L326.92 45.98L318.88 43.12L310.69 40.58L302.36 38.34L293.91 36.44L285.34 34.86L276.66 33.62L267.87 32.73L258.98 32.19L250 32L241.02 32.19L232.13 32.73Z" id="bpbiezNne"></path><linearGradient id="gradienta1qJWYczc2" gradientUnits="userSpaceOnUse" x1="250" y1="6.16" x2="250" y2="515"><stop style="stop-color: #ffe07d;stop-opacity: 1" offset="0%"></stop><stop style="stop-color: #d5af43;stop-opacity: 1" offset="36.00489995443084%"></stop><stop style="stop-color: #f8d16f;stop-opacity: 1" offset="69.15288985276814%"></stop><stop style="stop-color: #e0b147;stop-opacity: 1" offset="100%"></stop></linearGradient></defs><g><g><g><use xlink:href="#cjSOWmamv" opacity="1" fill="#4dc13b" fill-opacity="1"></use><g><use xlink:href="#cjSOWmamv" opacity="1" fill-opacity="0" stroke="#1b1b1b" stroke-width="4" stroke-opacity="0.81"></use></g></g><g><g><filter id="shadow2327513" x="-20" y="-20" width="541" height="544" filterUnits="userSpaceOnUse" primitiveUnits="userSpaceOnUse"><feFlood></feFlood><feComposite in2="SourceAlpha" operator="in"></feComposite><feGaussianBlur stdDeviation="3.16"></feGaussianBlur><feOffset dx="1" dy="4" result="afterOffset"></feOffset><feFlood flood-color="#000000" flood-opacity="0.15"></feFlood><feComposite in2="afterOffset" operator="in"></feComposite><feMorphology operator="dilate" radius="1"></feMorphology><feComposite in2="SourceAlpha" operator="out"></feComposite></filter><path d="M490 250C490 382.46 382.46 490 250 490C117.54 490 10 382.46 10 250C10 117.54 117.54 10 250 10C382.46 10 490 117.54 490 250Z" id="a25GxFksHp" fill="white" fill-opacity="1" filter="url(#shadow2327513)"></path></g></g><g><g><filter id="shadow16546417" x="2" y="2" width="497" height="500" filterUnits="userSpaceOnUse" primitiveUnits="userSpaceOnUse"><feFlood></feFlood><feComposite in2="SourceAlpha" operator="out"></feComposite><feGaussianBlur stdDeviation="3.16"></feGaussianBlur><feOffset dx="1" dy="4" result="afterOffset"></feOffset><feFlood flood-color="#000000" flood-opacity="0.15"></feFlood><feComposite in2="afterOffset" operator="in"></feComposite><feMorphology operator="dilate" radius="1"></feMorphology><feComposite in2="SourceAlpha" operator="in"></feComposite></filter><path d="M468 250C468 370.32 370.32 468 250 468C129.68 468 32 370.32 32 250C32 129.69 129.68 32 250 32C370.32 32 468 129.69 468 250Z" id="c2TEx1nD0G" fill="white" fill-opacity="1" filter="url(#shadow16546417)"></path></g></g><g><use xlink:href="#dxAGfSfB" opacity="1" fill="url(#gradientc1sMWOPI5Z)"></use><g><use xlink:href="#dxAGfSfB" opacity="1" fill-opacity="0" stroke="#604e30" stroke-width="1.5" stroke-opacity="1"></use></g></g><g><g><filter id="shadow1453380" x="175" y="175" width="151" height="154" filterUnits="userSpaceOnUse" primitiveUnits="userSpaceOnUse"><feFlood></feFlood><feComposite in2="SourceAlpha" operator="in"></feComposite><feGaussianBlur stdDeviation="3.16"></feGaussianBlur><feOffset dx="1" dy="4" result="afterOffset"></feOffset><feFlood flood-color="#000000" flood-opacity="0.15"></feFlood><feComposite in2="afterOffset" operator="in"></feComposite><feMorphology operator="dilate" radius="1"></feMorphology><feComposite in2="SourceAlpha" operator="out"></feComposite></filter><path d="M295 250C295 274.84 274.84 295 250 295C225.17 295 205 274.84 205 250C205 225.17 225.17 205 250 205C274.84 205 295 225.17 295 250Z" id="b4wTJMldfK" fill="white" fill-opacity="1" filter="url(#shadow1453380)"></path></g><use xlink:href="#g2XZ8yZWoh" opacity="1" fill="url(#gradientbaBS2Fa1)"></use><g><use xlink:href="#g2XZ8yZWoh" opacity="1" fill-opacity="0" stroke="#474138" stroke-width="1.5" stroke-opacity="1"></use></g></g><g><use xlink:href="#bpbiezNne" opacity="1" fill="url(#gradienta1qJWYczc2)"></use><g><use xlink:href="#bpbiezNne" opacity="1" fill-opacity="0" stroke="#474138" stroke-width="1.5" stroke-opacity="1"></use></g></g></g></g></svg>