<?xml version="1.0" encoding="UTF-8" standalone="no"?>
<!DOCTYPE svg PUBLIC "-//W3C//DTD SVG 1.1//EN" "http://www.w3.org/Graphics/SVG/1.1/DTD/svg11.dtd">
<svg width="100%" height="100%" viewBox="0 0 90 90" version="1.1" xmlns="http://www.w3.org/2000/svg" xmlns:xlink="http://www.w3.org/1999/xlink" xml:space="preserve" xmlns:serif="http://www.serif.com/" style="fill-rule:evenodd;clip-rule:evenodd;stroke-linejoin:round;stroke-miterlimit:2;">
    <path d="M56.546,37.043C56.5,39.808 55.309,43.476 55.39,44.627C55.463,45.661 55.379,46.727 55.315,48.589C55.255,49.342 55.284,50.099 55.404,50.845C55.483,51.693 55.855,52.489 56.456,53.093C57.809,53.107 58.161,52.483 59.449,51.66C61.618,50.315 64.107,49.572 66.658,49.508C68.39,49.481 70.342,49.608 71.143,50.543C72.166,51.909 72.093,53.821 70.968,55.104C69.94,56.457 66.862,57.419 62.254,59.496C60.958,60.134 59.81,61.037 58.885,62.146C57.513,63.543 55.907,64.687 54.139,65.528C52.674,66.292 51.106,66.838 49.484,67.151C48.042,67.736 46.511,68.069 44.957,68.135C44.081,68.077 43.229,67.819 42.468,67.382C40.923,67.639 39.356,67.74 37.791,67.682C36.466,67.717 35.169,67.287 34.127,66.467C31.927,64.484 31.086,59.367 30.788,54.672C30.504,50.199 31.519,49.972 31.117,46.743C30.697,43.373 30.1,42.037 29.417,38.636C28.608,34.613 28.647,33.641 29.317,32.145C29.696,31.268 30.489,30.635 31.429,30.461C31.074,29.086 30.939,27.663 31.029,26.246C31.091,25.839 31.173,24.06 32.584,23.37C33.617,22.852 34.854,22.935 35.809,23.585C36.738,24.217 37.546,25.423 38.726,29.23C39.932,33.121 40.53,34.887 40.82,35.968C41.138,37.305 41.879,38.71 42.367,39.993C43.366,37.376 44.417,34.566 44.488,31.768C44.579,28.893 44.628,27.104 45,25.014C45.22,23.571 45.847,22.392 47.163,21.763C48.086,21.422 49.101,21.422 50.024,21.763C50.836,22.094 51.425,22.818 51.584,23.68C52.171,23.241 52.941,23.124 53.631,23.371C54.662,23.659 56.062,25.684 56.366,27.449C56.765,29.756 56.629,32 56.546,37.043Z" style="fill:#b24d90;fill-rule:nonzero;"/>
    <path d="M70.786,52.455C70.694,51.615 70.026,50.947 69.186,50.855C66.863,50.192 64.366,50.513 62.286,51.742C61.565,52.043 61.057,52.706 60.955,53.481L60.942,53.583C60.742,53.589 60.705,52.853 60.808,52.461C60.323,52.682 59.876,52.977 59.483,53.337C58.795,53.855 57.982,54.182 57.127,54.286C55.932,54.31 54.739,54.21 53.565,53.986C52.354,53.876 51.137,53.857 49.923,53.93C50.492,53.689 51.105,53.57 51.723,53.58C51.906,53.569 53.372,53.5 53.558,53.501C54.194,53.51 54.827,53.574 55.452,53.693C54.484,52.805 53.949,51.538 53.988,50.225C53.988,50.025 53.99,48.274 54.062,47.961C54.144,47.487 54.188,47.007 54.194,46.526C54.2,45.984 54.167,44.045 54.321,43.084C54.436,42.365 54.559,41.559 54.759,40.635C55.617,36.673 55.409,32.726 55.216,28.726C55.146,27.909 54.978,27.103 54.716,26.326C54.584,25.845 54.345,25.401 54.016,25.026C53.732,24.578 53.236,24.305 52.705,24.305C52.018,24.305 51.409,24.762 51.216,25.421C50.986,26.134 50.852,26.873 50.816,27.621C50.711,30.421 50.831,33.242 50.504,36.025C50.24,38.277 49.917,39.46 49.801,40.121C49.601,40.921 49.501,41.621 49.301,42.321C49.001,43.121 48.535,42.981 47.901,43.021C48.158,42.726 48.361,42.387 48.501,42.021C48.701,41.121 49.001,40.221 49.206,39.221C49.406,38.321 49.906,36.421 49.906,35.821C49.989,35.225 50.023,34.623 50.006,34.021C49.894,31.547 50.033,29.067 50.42,26.621C50.52,25.724 50.52,24.818 50.42,23.921C50.361,23.194 49.749,22.626 49.02,22.621C48.846,22.573 48.666,22.549 48.486,22.549C47.547,22.549 46.726,23.205 46.52,24.121C46.172,25.326 45.968,26.568 45.913,27.821C45.765,31.959 44.947,36.045 43.491,39.921C43.24,40.657 42.905,41.362 42.491,42.021C41.777,41.374 41.677,40.823 41.101,39.6C40.448,38.212 38.304,32.321 37.211,28.715C36.868,27.518 36.436,26.348 35.917,25.215C35.517,24.215 34.617,24.115 33.717,24.115C32.817,24.115 32.417,24.815 32.217,25.515C32.053,25.997 31.985,26.507 32.017,27.015C32.117,28.415 32.412,29.815 32.609,31.215C32.643,31.419 33.003,32.415 33.003,32.415C33.403,33.715 34.403,36.015 34.703,37.215C34.903,37.915 35.203,38.615 35.503,39.415C36.003,40.815 36.598,42.215 37.095,43.615C37.495,44.715 37.295,45.015 36.195,45.615C36.291,44.411 36.117,43.268 35.762,42.113C35.635,41.696 35.291,40.251 34.806,39.013C34.701,38.587 34.406,37.513 34.306,37.313C33.806,35.613 33.212,34.013 32.615,32.413C32.415,31.813 32.015,31.713 31.315,31.813C30.749,31.869 30.272,32.266 30.115,32.813C29.781,33.917 29.744,35.09 30.009,36.213C30.509,38.613 31,40.913 31.596,43.313C32.185,45.048 32.387,46.892 32.186,48.713C31.766,51.527 31.693,54.382 31.97,57.213C32.197,59.637 32.835,62.004 33.857,64.213C34.309,65.291 35.299,66.053 36.457,66.213C37.883,66.399 39.324,66.435 40.757,66.321C41.791,66.07 42.876,66.125 43.879,66.478C44.554,66.812 45.324,66.901 46.057,66.731C48.564,66.227 51.011,65.46 53.357,64.444C54.077,64.098 55.361,63.174 56.12,62.769C57.019,62.289 57.814,61.637 58.459,60.849C59.51,59.585 60.849,58.593 62.364,57.956C64.764,56.956 67.064,55.765 69.47,54.569C70.325,54.234 70.863,53.371 70.786,52.455ZM37.093,53.461C40.506,52.392 40.302,51.02 42.278,50.038C43.295,49.532 45.845,48.036 46.831,48.078C45.952,48.238 45.2,49.018 43.246,49.959C40.969,51.056 40.251,52.833 37.093,53.461ZM44.465,57.573C43.806,59.179 43.702,59.891 43.44,61.137C43.567,57.882 45.443,55.136 46.28,53.527C45.98,55.057 44.964,56.357 44.465,57.573Z" style="fill:#fff;fill-rule:nonzero;"/>
    <path d="M30.067,20.222C29.486,20.574 28.875,20.792 28.234,20.877C27.593,20.961 26.943,20.911 26.284,20.726L26.717,18.801C27.611,19.003 28.367,18.917 28.986,18.542C29.277,18.365 29.464,18.184 29.547,17.998C29.631,17.812 29.621,17.633 29.517,17.462C29.447,17.346 29.354,17.264 29.239,17.217C29.124,17.17 28.951,17.158 28.719,17.181C28.488,17.205 28.169,17.27 27.761,17.376C27.079,17.555 26.432,17.6 25.819,17.511C25.207,17.422 24.703,17.052 24.31,16.402C24.08,16.023 23.954,15.62 23.932,15.194C23.91,14.768 24.024,14.344 24.274,13.924C24.524,13.504 24.93,13.123 25.491,12.784C26.031,12.456 26.571,12.25 27.112,12.166C27.652,12.082 28.201,12.095 28.759,12.206L28.489,14.109C28.2,14.05 27.88,14.044 27.528,14.092C27.176,14.139 26.861,14.247 26.584,14.415C26.358,14.551 26.213,14.702 26.15,14.867C26.086,15.032 26.102,15.193 26.197,15.35C26.253,15.443 26.338,15.501 26.453,15.525C26.568,15.548 26.707,15.548 26.87,15.524C27.034,15.5 27.278,15.453 27.604,15.381L27.779,15.346C28.368,15.222 28.881,15.162 29.317,15.164C29.753,15.166 30.144,15.256 30.489,15.432C30.835,15.609 31.128,15.895 31.368,16.292C31.646,16.75 31.778,17.22 31.766,17.702C31.754,18.184 31.602,18.643 31.31,19.079C31.019,19.516 30.604,19.897 30.067,20.222Z" style="fill:#c480ad;fill-rule:nonzero;"/>
    <path d="M33.407,18.166L30.861,10.133L34.183,9.08C34.762,8.896 35.307,8.851 35.817,8.946C36.327,9.04 36.766,9.254 37.135,9.588C37.503,9.923 37.768,10.347 37.931,10.862C38.108,11.418 38.149,11.944 38.054,12.44C37.959,12.936 37.733,13.369 37.374,13.741C37.016,14.112 36.542,14.392 35.951,14.579L34.664,14.987L35.465,17.514L33.407,18.166ZM35.196,12.773C35.379,12.715 35.532,12.623 35.655,12.495C35.779,12.368 35.861,12.22 35.901,12.049C35.941,11.879 35.934,11.707 35.878,11.531C35.825,11.364 35.735,11.228 35.608,11.126C35.482,11.024 35.333,10.959 35.164,10.934C34.994,10.908 34.817,10.924 34.634,10.982L33.508,11.339L34.075,13.128L35.196,12.773Z" style="fill:#c480ad;fill-rule:nonzero;"/>
    <path d="M44.165,16.089C43.353,16.112 42.607,15.937 41.926,15.563C41.245,15.19 40.702,14.675 40.297,14.018C39.893,13.361 39.679,12.632 39.657,11.832C39.634,11.032 39.807,10.293 40.174,9.614C40.541,8.935 41.053,8.393 41.711,7.988C42.368,7.584 43.104,7.37 43.92,7.347C44.732,7.324 45.478,7.498 46.157,7.867C46.836,8.236 47.377,8.748 47.782,9.404C48.187,10.059 48.4,10.786 48.423,11.586C48.445,12.382 48.272,13.121 47.905,13.802C47.538,14.482 47.025,15.028 46.366,15.439C45.707,15.85 44.973,16.066 44.165,16.089ZM44.107,14.019C44.495,14.008 44.854,13.897 45.185,13.686C45.515,13.474 45.775,13.189 45.965,12.829C46.155,12.47 46.245,12.078 46.233,11.654C46.221,11.23 46.109,10.845 45.897,10.498C45.685,10.152 45.409,9.882 45.067,9.69C44.725,9.497 44.362,9.406 43.978,9.417C43.59,9.428 43.231,9.539 42.901,9.751C42.571,9.962 42.309,10.246 42.117,10.604C41.925,10.962 41.835,11.353 41.847,11.777C41.859,12.201 41.97,12.586 42.182,12.932C42.394,13.278 42.672,13.549 43.016,13.743C43.359,13.938 43.723,14.03 44.107,14.019Z" style="fill:#c480ad;fill-rule:nonzero;"/>
    <path d="M53.099,17.214C52.313,17.01 51.645,16.635 51.095,16.087C50.545,15.539 50.167,14.894 49.96,14.15C49.754,13.407 49.752,12.648 49.952,11.874C50.153,11.099 50.524,10.437 51.065,9.887C51.607,9.338 52.249,8.96 52.992,8.754C53.736,8.547 54.502,8.547 55.292,8.751C55.815,8.887 56.289,9.102 56.715,9.396C57.141,9.69 57.499,10.042 57.79,10.452L56.204,11.74C56.038,11.519 55.828,11.318 55.573,11.136C55.319,10.954 55.052,10.828 54.773,10.755C54.398,10.658 54.022,10.665 53.646,10.776C53.27,10.887 52.94,11.088 52.656,11.378C52.372,11.668 52.177,12.018 52.071,12.429C51.964,12.839 51.965,13.24 52.072,13.632C52.179,14.023 52.371,14.36 52.647,14.642C52.923,14.924 53.247,15.114 53.619,15.21C53.921,15.288 54.203,15.314 54.466,15.287C54.73,15.26 55.031,15.175 55.369,15.032L56.11,16.934C55.656,17.155 55.171,17.291 54.656,17.342C54.141,17.392 53.622,17.349 53.099,17.214Z" style="fill:#c480ad;fill-rule:nonzero;"/>
    <path d="M63.145,21.893L60.914,20.61L60.722,16.72L59.379,17.201L58.287,19.099L56.415,18.022L60.619,10.715L62.491,11.792L60.843,14.657L64.8,13.12L67.083,14.434L62.756,15.987L63.145,21.893Z" style="fill:#c480ad;fill-rule:nonzero;"/>
</svg>
