<?xml version="1.0" encoding="UTF-8" standalone="no"?>
<!DOCTYPE svg PUBLIC "-//W3C//DTD SVG 1.1//EN" "http://www.w3.org/Graphics/SVG/1.1/DTD/svg11.dtd">
<svg width="100%" height="100%" viewBox="0 0 600 600" version="1.1" xmlns="http://www.w3.org/2000/svg" xmlns:xlink="http://www.w3.org/1999/xlink" xml:space="preserve" xmlns:serif="http://www.serif.com/" style="fill-rule:evenodd;clip-rule:evenodd;stroke-linecap:round;stroke-linejoin:round;stroke-miterlimit:1.5;">
    <g transform="matrix(1.64083,0,0,1.64083,-185.991,-147.517)">
        <circle cx="296.186" cy="272.738" r="182.225" style="fill:none;stroke:rgb(123,123,123);stroke-width:0.61px;"/>
    </g>
    <g transform="matrix(1.01883,0,0,1.01883,-5.64891,-5.64891)">
        <path d="M408.037,566.174C408.037,561.425 404.048,552.317 401.834,548.245C396.446,538.339 389.395,525.39 385.292,514.79C372.765,482.422 364.234,462.266 349.994,430.664C342.404,413.82 333.52,389.313 327.516,371.539C322.744,357.412 303.773,310.415 300,300.023" style="fill:none;stroke:rgb(0,100,219);stroke-width:2.94px;stroke-linecap:square;"/>
    </g>
    <g transform="matrix(1.01883,0,0,1.01883,-5.64891,-5.64891)">
        <path d="M212.116,574.996C223.559,523.435 234.59,502.429 243.913,475.891C248.02,464.199 259.732,423.068 263.664,411.343C272.448,385.148 296.216,312.237 296.216,300" style="fill:none;stroke:rgb(0,100,219);stroke-width:2.94px;stroke-linecap:square;"/>
    </g>
    <g transform="matrix(1.01883,0,0,1.01883,-5.64891,-5.64891)">
        <path d="M299.228,300.834C280.316,310.586 255.943,330.345 238.958,337.982C199.382,355.778 111.463,416.873 84.477,432.108C80.06,434.602 75.972,438.419 71.028,440.105C64.361,442.38 59.122,443.04 53.738,448.404" style="fill:none;stroke:rgb(0,100,219);stroke-width:2.94px;stroke-linecap:square;"/>
    </g>
    <g transform="matrix(1.01883,0,0,1.01883,-5.64891,-5.64891)">
        <path d="M301.093,297.984C288.405,296.642 251.312,294.858 237.079,291.49C207.099,284.394 183.318,284.249 153.659,276.352C121.134,267.691 91.163,262.697 57.588,259.325C40.724,257.632 31.019,252.824 14.158,252.824" style="fill:none;stroke:rgb(0,100,219);stroke-width:2.94px;stroke-linecap:square;"/>
    </g>
    <g transform="matrix(1.01883,0,0,1.01883,-5.64891,-5.64891)">
        <path d="M296.216,297.984C288.9,289.611 273.243,270.74 266.013,262.146C251.728,245.165 224.794,214.718 208.745,195.642C194.251,178.412 167.973,151.565 153.349,134.4C148.536,128.752 118.221,89.74 114.692,84.465" style="fill:none;stroke:rgb(0,100,219);stroke-width:2.94px;stroke-linecap:square;"/>
    </g>
    <g transform="matrix(1.01883,0,0,1.01883,-5.64891,-5.64891)">
        <path d="M299.332,300.35C299.332,263.13 299.201,226.385 302.249,189.566C304.354,164.137 300.429,138.516 300.429,113.09C300.429,93.505 302.056,73.584 300.399,54.055C299.656,45.294 299.329,36.62 299.329,27.822C299.329,27.072 299.172,15.232 300,15.232" style="fill:none;stroke:rgb(0,100,219);stroke-width:2.94px;stroke-linecap:square;"/>
    </g>
    <g transform="matrix(1.01883,0,0,1.01883,-5.64891,-5.64891)">
        <path d="M555.986,432.557C546.454,429.525 500.882,407.859 483.042,395.112C468.231,384.529 442.976,374.401 426.806,366.299C398.922,352.328 379.016,339.773 351.779,324.582C344.269,320.394 304.401,300 296.216,300" style="fill:none;stroke:rgb(0,100,219);stroke-width:2.94px;stroke-linecap:square;"/>
    </g>
</svg>
