<?xml version="1.0" encoding="UTF-8" standalone="no"?>
<!DOCTYPE svg PUBLIC "-//W3C//DTD SVG 1.1//EN" "http://www.w3.org/Graphics/SVG/1.1/DTD/svg11.dtd">
<svg version="1.1" xmlns="http://www.w3.org/2000/svg" xmlns:xlink="http://www.w3.org/1999/xlink" preserveAspectRatio="xMidYMid meet" viewBox="0 0 500 500" width="500" height="500"><defs><path d="M490 250C490 382.46 382.46 490 250 490C117.54 490 10 382.46 10 250C10 117.54 117.54 10 250 10C382.46 10 490 117.54 490 250Z" id="bafBgDhCh"></path><path d="M468 250C468 370.32 370.32 468 250 468C129.68 468 32 370.32 32 250C32 129.69 129.68 32 250 32C370.32 32 468 129.69 468 250Z" id="cgZ1gAlQR"></path><path d="M282.5 250C282.5 267.94 267.94 282.5 250 282.5C232.06 282.5 217.5 267.94 217.5 250C217.5 232.07 232.06 217.5 250 217.5C267.94 217.5 282.5 232.07 282.5 250Z" id="g2jIg2gR3G"></path><linearGradient id="gradienta3lu1fazS" gradientUnits="userSpaceOnUse" x1="273.5" y1="211.54" x2="226.5" y2="289.32"><stop style="stop-color: #ac0000;stop-opacity: 1" offset="0%"></stop><stop style="stop-color: #720000;stop-opacity: 1" offset="100%"></stop></linearGradient><path d="M257.26 239.97L273.5 242.46L261.75 254.5L264.53 271.51L250 263.48L235.47 271.51L238.25 254.5L226.5 242.46L242.74 239.97L250 224.5L257.26 239.97Z" id="a231UsercL"></path><path d="M266.53 10.42L275.86 11.25L285.12 12.44L294.3 13.99L303.39 15.89L312.39 18.14L321.27 20.72L330.04 23.64L338.68 26.9L347.18 30.47L355.53 34.37L363.73 38.58L371.76 43.1L379.62 47.92L387.28 53.04L394.76 58.46L402.03 64.17L409.08 70.15L415.91 76.42L422.51 82.96L428.86 89.77L434.96 96.84L440.8 104.17L446.36 111.75L451.64 119.57L456.63 127.64L461.32 135.95L465.7 144.48L469.75 153.25L473.48 162.23L476.87 171.43L479.9 180.84L482.55 190.37L484.8 199.91L486.64 209.46L488.09 219.01L489.14 228.54L489.8 238.06L490.09 247.54L489.99 256.98L489.53 266.37L488.69 275.7L487.5 284.96L485.95 294.15L484.05 303.24L481.81 312.23L479.22 321.12L476.3 329.88L473.05 338.52L469.47 347.02L465.58 355.38L461.37 363.57L456.85 371.6L452.02 379.46L446.9 387.13L441.48 394.6L435.78 401.87L429.79 408.93L423.52 415.76L416.98 422.35L410.18 428.7L403.11 434.8L395.78 440.64L388.2 446.2L380.37 451.48L372.3 456.47L364 461.16L355.46 465.54L346.7 469.6L337.71 473.32L328.51 476.71L319.1 479.75L309.58 482.4L300.03 484.64L290.48 486.48L280.94 487.93L271.4 488.98L261.89 489.65L252.4 489.93L242.96 489.84L233.57 489.37L224.24 488.54L214.98 487.34L205.8 485.8L196.71 483.9L187.71 481.65L178.83 479.06L170.06 476.14L161.42 472.89L152.92 469.32L144.57 465.42L136.37 461.21L128.34 456.69L120.48 451.87L112.82 446.74L105.34 441.33L98.07 435.62L91.02 429.63L84.19 423.37L77.59 416.83L71.24 410.02L65.14 402.95L59.3 395.62L53.74 388.04L48.46 380.21L43.47 372.15L38.78 363.84L34.4 355.3L30.35 346.54L26.62 337.56L23.23 328.36L20.2 318.95L17.55 309.42L15.3 299.88L13.46 290.33L12.01 280.78L10.96 271.24L10.3 261.73L10.01 252.25L10.11 242.8L10.57 233.41L11.41 224.08L12.6 214.82L14.15 205.64L16.05 196.55L18.29 187.56L20.88 178.67L23.8 169.9L27.05 161.27L30.63 152.76L34.52 144.41L38.73 136.21L43.25 128.18L48.08 120.33L53.2 112.66L58.62 105.18L64.32 97.92L70.31 90.86L76.58 84.03L83.12 77.44L89.92 71.08L96.99 64.98L104.32 59.15L111.9 53.58L119.73 48.3L127.8 43.31L136.1 38.62L144.64 34.25L153.4 30.19L162.39 26.46L171.59 23.08L181 20.04L190.52 17.39L200.07 15.14L209.62 13.3L219.16 11.86L228.7 10.81L238.21 10.14L247.7 9.86L257.14 9.95L266.53 10.42ZM230.66 32.72L222 33.68L213.33 34.99L204.65 36.66L195.98 38.7L187.33 41.11L178.78 43.87L170.43 46.94L162.27 50.33L154.31 54.01L146.55 57.99L139.01 62.25L131.68 66.78L124.57 71.58L117.69 76.63L111.03 81.93L104.61 87.47L98.42 93.24L92.48 99.23L86.79 105.44L81.35 111.85L76.17 118.45L71.25 125.24L66.6 132.2L62.22 139.34L58.11 146.63L54.29 154.08L50.75 161.67L47.5 169.39L44.54 177.24L41.89 185.2L39.54 193.27L37.5 201.44L35.78 209.7L34.37 218.04L33.29 226.45L32.53 234.92L32.11 243.45L32.02 252.03L32.28 260.64L32.88 269.28L33.84 277.95L35.15 286.62L36.82 295.29L38.86 303.96L41.27 312.61L44.03 321.16L47.11 329.52L50.49 337.68L54.18 345.64L58.15 353.39L62.41 360.94L66.94 368.27L71.74 375.38L76.79 382.26L82.1 388.92L87.64 395.34L93.41 401.52L99.4 407.46L105.6 413.16L112.01 418.59L118.61 423.78L125.4 428.7L132.37 433.35L139.5 437.73L146.8 441.84L154.24 445.66L161.83 449.2L169.55 452.45L177.4 455.4L185.36 458.06L193.43 460.4L201.6 462.44L209.86 464.17L218.2 465.58L226.61 466.66L235.09 467.42L243.62 467.84L252.19 467.92L260.81 467.67L269.45 467.06L278.11 466.11L286.78 464.8L295.46 463.12L304.12 461.08L312.78 458.67L321.33 455.92L329.68 452.84L337.84 449.46L345.8 445.77L353.56 441.8L361.1 437.54L368.43 433L375.54 428.21L382.42 423.15L389.08 417.85L395.5 412.31L401.69 406.54L407.63 400.55L413.32 394.35L418.76 387.94L423.94 381.34L428.86 374.55L433.51 367.58L437.89 360.45L442 353.15L445.82 345.71L449.36 338.12L452.61 330.4L455.56 322.55L458.22 314.59L460.57 306.52L462.61 298.35L464.33 290.09L465.74 281.75L466.82 273.34L467.58 264.86L468 256.33L468.09 247.75L467.83 239.14L467.23 230.5L466.27 221.84L464.96 213.17L463.28 204.49L461.25 195.82L458.84 187.17L456.08 178.62L453 170.26L449.62 162.1L445.93 154.14L441.96 146.39L437.7 138.85L433.17 131.52L428.37 124.41L423.32 117.52L418.01 110.87L412.47 104.45L406.7 98.26L400.71 92.32L394.51 86.63L388.1 81.19L381.5 76.01L374.71 71.09L367.74 66.43L360.61 62.05L353.31 57.95L345.87 54.12L338.28 50.58L330.56 47.34L322.71 44.38L314.75 41.73L306.68 39.38L298.51 37.34L290.25 35.61L281.91 34.21L273.5 33.12L265.02 32.37L256.49 31.95L247.92 31.86L239.3 32.12L230.66 32.72Z" id="d1cD2t6Qtz"></path><linearGradient id="gradientb18tLea97" gradientUnits="userSpaceOnUse" x1="179.89" y1="16.36" x2="324.97" y2="475.53"><stop style="stop-color: #c50000;stop-opacity: 1" offset="0%"></stop><stop style="stop-color: #a40000;stop-opacity: 1" offset="20.74821827014591%"></stop><stop style="stop-color: #bf0000;stop-opacity: 1" offset="48.68534246474551%"></stop><stop style="stop-color: #720000;stop-opacity: 1" offset="77.84242759669466%"></stop><stop style="stop-color: #a70000;stop-opacity: 1" offset="100%"></stop></linearGradient><path d="M89.16 91.2C90.29 94.94 88.16 98.89 84.42 100.02C80.67 101.14 76.72 99.02 75.59 95.27C74.47 91.53 76.6 87.58 80.34 86.45C84.08 85.33 88.04 87.45 89.16 91.2Z" id="c1jKVQJ9yW"></path><path d="M99.47 88.1C102.31 97.53 96.95 107.49 87.51 110.33C78.08 113.16 68.12 107.8 65.28 98.37C62.45 88.94 67.81 78.97 77.24 76.14C86.68 73.31 96.64 78.66 99.47 88.1Z" id="f5oBdbiZQ"></path><radialGradient id="gradientc4YhofZntb" gradientUnits="userSpaceOnUse" cx="82.38" cy="93.23" dx="87.93" dy="111.71" r="19.29"><stop style="stop-color: #ffffff;stop-opacity: 1" offset="0%"></stop><stop style="stop-color: #ffffff;stop-opacity: 0" offset="100%"></stop></radialGradient><path d="M190.85 28.2C191.97 31.95 189.85 35.9 186.1 37.03C182.36 38.15 178.41 36.02 177.28 32.28C176.16 28.54 178.28 24.58 182.03 23.46C185.77 22.33 189.72 24.46 190.85 28.2Z" id="g107PUAA01"></path><path d="M201.16 25.11C203.99 34.54 198.63 44.5 189.2 47.34C179.77 50.17 169.8 44.81 166.97 35.38C164.14 25.94 169.49 15.98 178.93 13.15C188.36 10.31 198.32 15.67 201.16 25.11Z" id="bF6F1kXwj"></path><radialGradient id="gradientd1YrAboXH" gradientUnits="userSpaceOnUse" cx="184.06" cy="30.24" dx="189.61" dy="48.72" r="19.29"><stop style="stop-color: #ffffff;stop-opacity: 1" offset="0%"></stop><stop style="stop-color: #ffffff;stop-opacity: 0" offset="100%"></stop></radialGradient><path d="M322.69 467.06C323.81 470.8 321.69 474.76 317.94 475.88C314.2 477 310.25 474.88 309.12 471.13C308 467.39 310.12 463.44 313.87 462.31C317.61 461.19 321.56 463.31 322.69 467.06Z" id="fIDQlebEZ"></path><path d="M333 463.96C335.83 473.4 330.48 483.36 321.04 486.19C311.61 489.03 301.65 483.67 298.81 474.23C295.98 464.8 301.34 454.84 310.77 452C320.21 449.17 330.17 454.53 333 463.96Z" id="b1AKmMVzsN"></path><radialGradient id="gradientb6G7JTPC4g" gradientUnits="userSpaceOnUse" cx="315.91" cy="469.1" dx="321.46" dy="487.57" r="19.29"><stop style="stop-color: #ffffff;stop-opacity: 1" offset="0%"></stop><stop style="stop-color: #ffffff;stop-opacity: 0" offset="100%"></stop></radialGradient><path d="M36.93 313.92C38.06 317.66 35.93 321.62 32.19 322.74C28.44 323.87 24.49 321.74 23.36 317.99C22.24 314.25 24.37 310.3 28.11 309.17C31.85 308.05 35.81 310.17 36.93 313.92Z" id="d1Fhfg8Uga"></path><path d="M47.24 310.82C50.08 320.26 44.72 330.22 35.28 333.05C25.85 335.89 15.89 330.53 13.05 321.09C10.22 311.66 15.58 301.7 25.01 298.86C34.45 296.03 44.41 301.39 47.24 310.82Z" id="h9L8p1efW"></path><radialGradient id="gradientb7rKuTja3" gradientUnits="userSpaceOnUse" cx="30.15" cy="315.96" dx="35.7" dy="334.43" r="19.29"><stop style="stop-color: #ffffff;stop-opacity: 1" offset="0%"></stop><stop style="stop-color: #ffffff;stop-opacity: 0" offset="100%"></stop></radialGradient><path d="M477.41 186.45C478.53 190.19 476.41 194.15 472.66 195.27C468.92 196.4 464.97 194.27 463.84 190.53C462.72 186.78 464.84 182.83 468.59 181.7C472.33 180.58 476.28 182.71 477.41 186.45Z" id="f2ibJS8rDB"></path><path d="M487.72 183.35C490.55 192.79 485.2 202.75 475.76 205.58C466.33 208.42 456.37 203.06 453.53 193.62C450.7 184.19 456.06 174.23 465.49 171.39C474.92 168.56 484.89 173.92 487.72 183.35Z" id="a3765XiSaB"></path><radialGradient id="gradienta2nEuKNf6D" gradientUnits="userSpaceOnUse" cx="470.63" cy="188.49" dx="476.18" dy="206.96" r="19.29"><stop style="stop-color: #ffffff;stop-opacity: 1" offset="0%"></stop><stop style="stop-color: #ffffff;stop-opacity: 0" offset="100%"></stop></radialGradient><path d="M33.22 197.47C34.35 201.21 32.22 205.16 28.48 206.29C24.73 207.41 20.78 205.29 19.65 201.54C18.53 197.8 20.66 193.84 24.4 192.72C28.14 191.59 32.1 193.72 33.22 197.47Z" id="f32UBaEm5Y"></path><path d="M43.53 194.37C46.37 203.8 41.01 213.76 31.57 216.6C22.14 219.43 12.18 214.07 9.34 204.64C6.51 195.2 11.87 185.24 21.3 182.41C30.74 179.57 40.7 184.93 43.53 194.37Z" id="aE2EGOBAp"></path><radialGradient id="gradientabwAFO76f" gradientUnits="userSpaceOnUse" cx="26.44" cy="199.5" dx="31.99" dy="217.98" r="19.29"><stop style="stop-color: #ffffff;stop-opacity: 1" offset="0%"></stop><stop style="stop-color: #ffffff;stop-opacity: 0" offset="100%"></stop></radialGradient><path d="M318.95 26.99C320.08 30.74 317.95 34.69 314.21 35.82C310.46 36.94 306.51 34.81 305.38 31.07C304.26 27.33 306.39 23.37 310.13 22.25C313.87 21.12 317.83 23.25 318.95 26.99Z" id="asty4CLys"></path><path d="M329.26 23.9C332.1 33.33 326.74 43.29 317.3 46.13C307.87 48.96 297.91 43.6 295.07 34.17C292.24 24.73 297.6 14.77 307.03 11.94C316.47 9.1 326.43 14.46 329.26 23.9Z" id="aTCnr1kKw"></path><radialGradient id="gradienta3mpgYpAL" gradientUnits="userSpaceOnUse" cx="312.17" cy="29.03" dx="317.72" dy="47.51" r="19.29"><stop style="stop-color: #ffffff;stop-opacity: 1" offset="0%"></stop><stop style="stop-color: #ffffff;stop-opacity: 0" offset="100%"></stop></radialGradient><path d="M414.05 80.97C415.17 84.71 413.04 88.67 409.3 89.79C405.56 90.92 401.6 88.79 400.48 85.05C399.35 81.3 401.48 77.35 405.22 76.22C408.97 75.1 412.92 77.23 414.05 80.97Z" id="b2zfhUeww8"></path><path d="M424.36 77.87C427.19 87.31 421.83 97.27 412.4 100.1C402.96 102.94 393 97.58 390.17 88.14C387.33 78.71 392.69 68.75 402.13 65.91C411.56 63.08 421.52 68.44 424.36 77.87Z" id="bf61dJhvN"></path><radialGradient id="gradiente10siFEQt" gradientUnits="userSpaceOnUse" cx="407.26" cy="83.01" dx="412.81" dy="101.48" r="19.29"><stop style="stop-color: #ffffff;stop-opacity: 1" offset="0%"></stop><stop style="stop-color: #ffffff;stop-opacity: 0" offset="100%"></stop></radialGradient><path d="M95.99 410.18C97.12 413.92 94.99 417.87 91.25 419C87.5 420.12 83.55 418 82.43 414.25C81.3 410.51 83.43 406.56 87.17 405.43C90.92 404.31 94.87 406.43 95.99 410.18Z" id="eIxQQbMpI"></path><path d="M106.31 407.08C109.14 416.51 103.78 426.47 94.35 429.31C84.91 432.14 74.95 426.78 72.12 417.35C69.28 407.92 74.64 397.95 84.07 395.12C93.51 392.29 103.47 397.64 106.31 407.08Z" id="bYcBFOPMq"></path><radialGradient id="gradientb7CTjeLbjm" gradientUnits="userSpaceOnUse" cx="89.21" cy="412.21" dx="94.76" dy="430.69" r="19.29"><stop style="stop-color: #ffffff;stop-opacity: 1" offset="0%"></stop><stop style="stop-color: #ffffff;stop-opacity: 0" offset="100%"></stop></radialGradient><path d="M202.94 469.92C204.06 473.66 201.94 477.61 198.19 478.74C194.45 479.86 190.49 477.74 189.37 473.99C188.25 470.25 190.37 466.3 194.12 465.17C197.86 464.05 201.81 466.17 202.94 469.92Z" id="ejpMd3okZ"></path><path d="M213.25 466.82C216.08 476.25 210.72 486.22 201.29 489.05C191.85 491.88 181.89 486.53 179.06 477.09C176.23 467.66 181.58 457.7 191.02 454.86C200.45 452.03 210.41 457.39 213.25 466.82Z" id="deb95URzR"></path><radialGradient id="gradientb18uIJFMp" gradientUnits="userSpaceOnUse" cx="196.15" cy="471.96" dx="201.7" dy="490.43" r="19.29"><stop style="stop-color: #ffffff;stop-opacity: 1" offset="0%"></stop><stop style="stop-color: #ffffff;stop-opacity: 0" offset="100%"></stop></radialGradient><path d="M416.05 412.25C417.18 415.99 415.05 419.94 411.31 421.07C407.56 422.19 403.61 420.07 402.48 416.32C401.36 412.58 403.49 408.62 407.23 407.5C410.97 406.37 414.93 408.5 416.05 412.25Z" id="k1gDW0iaRQ"></path><path d="M426.36 409.15C429.2 418.58 423.84 428.54 414.4 431.38C404.97 434.21 395.01 428.85 392.17 419.42C389.34 409.98 394.7 400.02 404.13 397.19C413.57 394.35 423.53 399.71 426.36 409.15Z" id="ay594mOYA"></path><radialGradient id="gradienteUTCl900j" gradientUnits="userSpaceOnUse" cx="409.27" cy="414.28" dx="414.82" dy="432.76" r="19.29"><stop style="stop-color: #ffffff;stop-opacity: 1" offset="0%"></stop><stop style="stop-color: #ffffff;stop-opacity: 0" offset="100%"></stop></radialGradient><path d="M478.46 302.34C479.59 306.08 477.46 310.04 473.72 311.16C469.97 312.29 466.02 310.16 464.89 306.42C463.77 302.67 465.9 298.72 469.64 297.59C473.38 296.47 477.34 298.6 478.46 302.34Z" id="a2jRBoEiv"></path><path d="M488.77 299.24C491.61 308.68 486.25 318.64 476.81 321.47C467.38 324.31 457.42 318.95 454.58 309.51C451.75 300.08 457.11 290.12 466.54 287.28C475.98 284.45 485.94 289.81 488.77 299.24Z" id="hfFmU5CYG"></path><radialGradient id="gradientcngDHcSAc" gradientUnits="userSpaceOnUse" cx="471.68" cy="304.38" dx="477.23" dy="322.85" r="19.29"><stop style="stop-color: #ffffff;stop-opacity: 1" offset="0%"></stop><stop style="stop-color: #ffffff;stop-opacity: 0" offset="100%"></stop></radialGradient><path d="M252.63 16.06L253.75 16.73L254.69 17.6L255.42 18.65L255.88 19.84L256 20.76L256.04 20.76L256.03 20.99L256.05 21.14L255.98 21.73L253.27 60.81L250.5 100.86L247.23 60.85L244.03 21.81L243.96 21.21L243.97 21.07L243.95 20.84L244 20.84L244.11 19.91L244.56 18.72L245.26 17.66L246.19 16.77L247.31 16.1L248.58 15.66L249.97 15.5L251.35 15.65L252.63 16.06Z" id="a42rkccUrN"></path><path d="M252.64 19.89C253.49 21.33 253.01 23.19 251.57 24.04C250.12 24.89 248.26 24.4 247.42 22.96C246.57 21.52 247.05 19.66 248.49 18.81C249.93 17.96 251.79 18.45 252.64 19.89Z" id="e2SZuS5HQm"></path></defs><g><g><g><g><filter id="shadow16545610" x="-20" y="-20" width="541" height="544" filterUnits="userSpaceOnUse" primitiveUnits="userSpaceOnUse"><feFlood></feFlood><feComposite in2="SourceAlpha" operator="in"></feComposite><feGaussianBlur stdDeviation="3.16"></feGaussianBlur><feOffset dx="1" dy="4" result="afterOffset"></feOffset><feFlood flood-color="#000000" flood-opacity="0.15"></feFlood><feComposite in2="afterOffset" operator="in"></feComposite><feMorphology operator="dilate" radius="1"></feMorphology><feComposite in2="SourceAlpha" operator="out"></feComposite></filter><path d="M490 250C490 382.46 382.46 490 250 490C117.54 490 10 382.46 10 250C10 117.54 117.54 10 250 10C382.46 10 490 117.54 490 250Z" id="a4fr2deiV" fill="white" fill-opacity="1" filter="url(#shadow16545610)"></path></g></g><g><g><filter id="shadow5795369" x="2" y="2" width="497" height="500" filterUnits="userSpaceOnUse" primitiveUnits="userSpaceOnUse"><feFlood></feFlood><feComposite in2="SourceAlpha" operator="out"></feComposite><feGaussianBlur stdDeviation="3.16"></feGaussianBlur><feOffset dx="1" dy="4" result="afterOffset"></feOffset><feFlood flood-color="#000000" flood-opacity="0.15"></feFlood><feComposite in2="afterOffset" operator="in"></feComposite><feMorphology operator="dilate" radius="1"></feMorphology><feComposite in2="SourceAlpha" operator="in"></feComposite></filter><path d="M468 250C468 370.32 370.32 468 250 468C129.68 468 32 370.32 32 250C32 129.69 129.68 32 250 32C370.32 32 468 129.69 468 250Z" id="bRxZAXvnX" fill="white" fill-opacity="1" filter="url(#shadow5795369)"></path></g></g><g><use xlink:href="#g2jIg2gR3G" opacity="1" fill="url(#gradienta3lu1fazS)"></use><g><use xlink:href="#g2jIg2gR3G" opacity="1" fill-opacity="0" stroke="#424242" stroke-width="1" stroke-opacity="1"></use></g></g><g><use xlink:href="#a231UsercL" opacity="1" fill="#fff4d8" fill-opacity="1"></use></g><g><use xlink:href="#d1cD2t6Qtz" opacity="1" fill="url(#gradientb18tLea97)"></use><g><use xlink:href="#d1cD2t6Qtz" opacity="1" fill-opacity="0" stroke="#424242" stroke-width="1.5" stroke-opacity="1"></use></g></g><g><use xlink:href="#c1jKVQJ9yW" opacity="1" fill="#fdff57" fill-opacity="1"></use></g><g><use xlink:href="#f5oBdbiZQ" opacity="1" fill="url(#gradientc4YhofZntb)"></use></g><g><use xlink:href="#g107PUAA01" opacity="1" fill="#fdff57" fill-opacity="1"></use></g><g><use xlink:href="#bF6F1kXwj" opacity="1" fill="url(#gradientd1YrAboXH)"></use></g><g><use xlink:href="#fIDQlebEZ" opacity="1" fill="#fdff57" fill-opacity="1"></use></g><g><use xlink:href="#b1AKmMVzsN" opacity="1" fill="url(#gradientb6G7JTPC4g)"></use></g><g><use xlink:href="#d1Fhfg8Uga" opacity="1" fill="#fdff57" fill-opacity="1"></use></g><g><use xlink:href="#h9L8p1efW" opacity="1" fill="url(#gradientb7rKuTja3)"></use></g><g><use xlink:href="#f2ibJS8rDB" opacity="1" fill="#fdff57" fill-opacity="1"></use></g><g><use xlink:href="#a3765XiSaB" opacity="1" fill="url(#gradienta2nEuKNf6D)"></use></g><g><use xlink:href="#f32UBaEm5Y" opacity="1" fill="#fdff57" fill-opacity="1"></use></g><g><use xlink:href="#aE2EGOBAp" opacity="1" fill="url(#gradientabwAFO76f)"></use></g><g><use xlink:href="#asty4CLys" opacity="1" fill="#fdff57" fill-opacity="1"></use></g><g><use xlink:href="#aTCnr1kKw" opacity="1" fill="url(#gradienta3mpgYpAL)"></use></g><g><use xlink:href="#b2zfhUeww8" opacity="1" fill="#fdff57" fill-opacity="1"></use></g><g><use xlink:href="#bf61dJhvN" opacity="1" fill="url(#gradiente10siFEQt)"></use></g><g><use xlink:href="#eIxQQbMpI" opacity="1" fill="#fdff57" fill-opacity="1"></use></g><g><use xlink:href="#bYcBFOPMq" opacity="1" fill="url(#gradientb7CTjeLbjm)"></use></g><g><use xlink:href="#ejpMd3okZ" opacity="1" fill="#fdff57" fill-opacity="1"></use></g><g><use xlink:href="#deb95URzR" opacity="1" fill="url(#gradientb18uIJFMp)"></use></g><g><use xlink:href="#k1gDW0iaRQ" opacity="1" fill="#fdff57" fill-opacity="1"></use></g><g><use xlink:href="#ay594mOYA" opacity="1" fill="url(#gradienteUTCl900j)"></use></g><g><use xlink:href="#a2jRBoEiv" opacity="1" fill="#fdff57" fill-opacity="1"></use></g><g><use xlink:href="#hfFmU5CYG" opacity="1" fill="url(#gradientcngDHcSAc)"></use></g><g><use xlink:href="#a42rkccUrN" opacity="1" fill="#363636" fill-opacity="1"></use><g><use xlink:href="#a42rkccUrN" opacity="1" fill-opacity="0" stroke="#575757" stroke-width="0.5" stroke-opacity="1"></use></g></g><g><use xlink:href="#e2SZuS5HQm" opacity="1" fill="#920000" fill-opacity="1"></use><g><use xlink:href="#e2SZuS5HQm" opacity="1" fill-opacity="0" stroke="#242424" stroke-width="1" stroke-opacity="0.51"></use></g></g></g></g></svg>