<?xml version="1.0" encoding="UTF-8" standalone="no"?>
<!DOCTYPE svg PUBLIC "-//W3C//DTD SVG 1.1//EN" "http://www.w3.org/Graphics/SVG/1.1/DTD/svg11.dtd">
<svg width="100%" height="100%" viewBox="0 0 90 90" version="1.1" xmlns="http://www.w3.org/2000/svg" xmlns:xlink="http://www.w3.org/1999/xlink" xml:space="preserve" xmlns:serif="http://www.serif.com/" style="fill-rule:evenodd;clip-rule:evenodd;stroke-linejoin:round;stroke-miterlimit:2;">
    <path d="M49.523,23.747C50.78,23.334 52.084,23.08 53.361,23.426C54.61,23.805 55.752,24.476 56.689,25.386C57.635,26.226 58.539,27.113 59.396,28.044C60.336,28.281 61.245,28.623 62.109,29.064C63.409,29.572 64.563,30.396 65.466,31.461C66.659,32.917 66.418,34.264 66.137,35.784C66.08,36.094 66.242,36.309 64.733,39.953C64.381,40.793 63.971,41.607 63.508,42.39C62.517,44.313 61.972,44.388 60.943,46.185C59.806,48.175 59.61,48.614 59.152,49.242C58.217,50.344 56.946,51.108 55.535,51.417C54.167,51.663 53.215,50.907 52.148,51.029C51.592,51.112 51.042,51.225 50.498,51.367C49.541,51.701 48.517,51.798 47.515,51.648C46.234,51.365 45.784,51.214 44.67,50.523C43.555,49.833 43.628,50.927 39.314,58.685C38.104,60.863 37.448,62.168 36.867,63.415C36.178,64.897 35.469,66.757 35.028,67.462C34.473,68.509 33.39,69.174 32.205,69.193C31.246,69.211 30.319,68.855 29.617,68.202C28.77,67.394 28.371,66.22 28.55,65.064C28.798,62.253 31.387,57.236 32.521,54.788C33.624,52.605 34.902,50.515 36.344,48.54C36.549,48.241 36.699,47.909 36.791,47.56C36.276,47.16 35.487,47.365 34.631,47.791C32.772,48.717 32.497,49.305 30.439,50.517C28.688,51.561 27.086,52.84 25.68,54.319C23.664,56.295 23.149,56.993 21.671,57.463C20.539,57.897 19.256,57.681 18.328,56.9C16.948,55.701 17.698,53.783 17.765,53.623C18.24,52.453 18.891,51.363 19.695,50.39C21.293,48.323 23.257,46.513 27.363,43.406C28.777,42.336 29.876,41.619 30.693,40.974C32.331,39.683 33.255,39.161 34.151,38.361C35.414,37.242 36.499,35.946 37.476,34.571C39.008,32.414 40.779,30.235 42.53,28.536C44.746,26.387 46.848,24.626 49.523,23.747Z" style="fill:#b24e90;fill-rule:nonzero;"/>
    <path d="M50.417,30.225C49.993,31.899 49.742,33.43 48.579,34.551C48.095,34.508 47.614,34.439 47.138,34.341C47.913,35.787 48.679,37.008 49.405,38.321C49.937,39.325 50.34,40.391 50.608,41.495C50.964,42.875 50.436,44.34 49.281,45.174C49.154,45.313 49.009,45.435 48.85,45.535C48.035,46.047 46.965,45.929 46.282,45.251C45.431,44.43 44.659,43.532 43.978,42.565C43.211,41.345 42.619,39.98 41.986,38.708C41.753,38.145 41.653,37.535 41.693,36.927C41.967,34.857 42.373,32.737 42.743,30.706C42.775,30.391 43.015,29.869 43.212,29.619C45.211,27.108 48.023,25.585 48.907,25.197C50.784,24.374 53.276,24.234 54.799,25.606C56.005,26.585 57.033,27.708 58.104,28.739C58.596,29.324 59.306,29.683 60.069,29.734C61.654,29.931 63.101,30.74 64.099,31.987C64.634,32.502 64.91,33.23 64.851,33.97C64.846,34.53 64.778,35.088 64.649,35.633C63.856,38.655 62.533,41.512 60.741,44.071C59.934,45.134 59.268,46.369 58.422,47.521C58.117,48.019 57.76,48.483 57.36,48.907C56.627,49.638 55.616,50.021 54.583,49.96C54.492,49.919 54.36,49.969 54.268,49.927C52.482,49.404 50.569,49.517 48.857,50.247C48.362,50.416 47.824,50.405 47.335,50.219C46.416,49.913 45.531,49.514 44.695,49.026C43.086,47.972 42.99,46.723 44.267,45.106C46.158,46.505 48.113,47.277 50.234,45.488C50.18,46.341 50.207,47.011 50.193,47.772C50.904,47.654 50.904,47.654 51.114,46.213C51.875,46.227 52.746,46.728 53.663,46.154C52.801,45.876 52.163,45.589 51.392,45.351C51.563,43.337 51.979,41.351 52.629,39.437C52.793,39.073 53.14,38.79 53.302,38.423C53.384,38.24 53.325,37.885 53.498,37.744C53.898,37.255 54.382,36.841 54.926,36.522C56.067,35.938 56.755,36.359 56.983,37.557C57.127,37.961 57.161,38.396 57.078,38.817L56.751,43.932C56.737,44.693 56.764,45.364 56.75,46.125C56.823,46.146 56.902,46.143 56.973,46.116L57.069,45.171C57.202,42.929 57.426,40.726 57.56,38.484C57.686,37.223 57.816,35.968 56.53,35.169C57.204,34.155 58.163,33.491 58.058,32.018C57.506,32.756 57.127,33.355 56.658,33.909C56.259,34.398 55.775,34.812 55.23,35.131C54.446,35.655 54.264,35.573 53.599,34.615C52.632,35.058 51.755,35.538 50.749,36.074C50.34,36.315 49.836,36.335 49.408,36.129C48.902,35.792 48.802,35.527 49.049,34.98L50.198,32.427C50.719,31.811 50.807,30.932 50.417,30.225Z" style="fill:#fff;fill-rule:nonzero;"/>
    <path d="M41.74,31.251C41.988,31.438 41.558,33.584 41.558,33.584C41.495,34.215 41.339,34.802 41.275,35.432C40.994,36.949 41.167,38.516 41.774,39.935C41.774,39.935 40.133,41.885 40.342,41.771C41.772,40.992 42.335,41.207 42.335,41.207C43.91,43.727 43.775,44.016 43.396,44.613C42.645,45.695 42.514,47.096 43.053,48.297C43.197,48.645 43.18,49.039 43.008,49.374C41.337,52.352 39.718,55.459 38.141,58.478C37.761,59.072 36.298,61.675 36.298,61.675C35.733,63.175 34.922,65.144 34.265,66.602C34.072,66.933 33.828,67.229 33.54,67.482C33.047,68.133 32.171,68.372 31.415,68.061C30.526,67.804 29.875,67.034 29.77,66.115C29.648,64.721 29.898,63.319 30.494,62.054C32.373,57.635 34.121,53.268 37.053,49.434C37.485,48.874 37.836,48.256 38.095,47.597C38.546,46.594 38.073,45.942 36.996,45.896C36.058,45.917 35.143,46.186 34.342,46.675C33.599,47.109 32.458,47.781 31.564,48.402C30.128,49.4 27.48,51.1 26.253,52.347C25.548,53.064 24.01,54.524 23.061,55.412C22.607,55.779 22.128,56.113 21.625,56.41C20.822,56.891 19.775,56.703 19.19,55.972C18.58,55.438 18.429,54.539 18.832,53.834C19.22,52.976 19.697,52.161 20.256,51.403C22.581,48.408 25.438,45.868 28.687,43.912C29.95,43.055 31.163,42.066 32.421,41.209C33.069,40.738 33.816,40.302 34.469,39.828C34.775,39.636 34.989,39.404 35.294,39.213C36.979,37.742 38.447,36.04 39.654,34.157C40.163,33.27 40.922,31.865 41.74,31.251Z" style="fill:#fff;fill-rule:nonzero;"/>
    <path d="M53.517,36.007L51.464,40.567C51.314,40.17 51.072,39.732 50.871,39.203C50.671,38.674 50.205,38.246 50.625,37.557C51.275,36.597 52.358,36.017 53.517,36.007Z" style="fill:#fff;fill-rule:nonzero;"/>
    <path d="M25.289,23.83C24.792,24.294 24.239,24.633 23.628,24.847C23.018,25.061 22.371,25.145 21.688,25.099L21.718,23.126C22.634,23.14 23.357,22.901 23.886,22.406C24.135,22.174 24.281,21.959 24.324,21.759C24.368,21.56 24.321,21.387 24.185,21.241C24.092,21.141 23.985,21.08 23.862,21.058C23.74,21.035 23.568,21.059 23.346,21.129C23.124,21.2 22.825,21.329 22.448,21.517C21.817,21.832 21.193,22.009 20.574,22.047C19.956,22.085 19.388,21.826 18.869,21.271C18.566,20.946 18.36,20.578 18.251,20.165C18.142,19.752 18.167,19.315 18.326,18.852C18.485,18.389 18.804,17.933 19.283,17.486C19.745,17.054 20.232,16.742 20.744,16.549C21.256,16.355 21.796,16.256 22.365,16.25L22.49,18.169C22.196,18.17 21.881,18.23 21.546,18.349C21.211,18.467 20.925,18.637 20.688,18.858C20.495,19.038 20.384,19.216 20.356,19.39C20.327,19.565 20.375,19.719 20.501,19.854C20.575,19.933 20.67,19.972 20.788,19.972C20.905,19.972 21.041,19.943 21.196,19.886C21.351,19.829 21.581,19.732 21.885,19.596L22.049,19.525C22.601,19.283 23.09,19.119 23.518,19.032C23.945,18.944 24.346,18.952 24.721,19.054C25.095,19.156 25.44,19.376 25.757,19.716C26.123,20.107 26.349,20.54 26.436,21.014C26.523,21.489 26.469,21.969 26.272,22.456C26.076,22.944 25.748,23.401 25.289,23.83Z" style="fill:#c480ad;fill-rule:nonzero;"/>
    <path d="M31.197,19.565C30.496,19.974 29.757,20.178 28.981,20.177C28.205,20.176 27.481,19.984 26.811,19.602C26.141,19.219 25.605,18.683 25.202,17.991C24.799,17.3 24.596,16.569 24.593,15.798C24.589,15.026 24.779,14.305 25.162,13.635C25.544,12.965 26.088,12.425 26.793,12.014C27.259,11.742 27.747,11.56 28.257,11.469C28.766,11.378 29.268,11.375 29.763,11.462L29.545,13.493C29.271,13.453 28.98,13.458 28.672,13.509C28.363,13.559 28.084,13.657 27.836,13.802C27.5,13.997 27.239,14.267 27.05,14.611C26.862,14.954 26.769,15.329 26.772,15.735C26.775,16.141 26.883,16.527 27.097,16.893C27.31,17.259 27.593,17.544 27.945,17.746C28.297,17.948 28.67,18.052 29.065,18.058C29.459,18.064 29.823,17.97 30.154,17.777C30.424,17.62 30.643,17.439 30.81,17.235C30.978,17.03 31.132,16.758 31.271,16.417L33.137,17.246C32.971,17.723 32.722,18.16 32.392,18.559C32.062,18.958 31.664,19.293 31.197,19.565Z" style="fill:#c480ad;fill-rule:nonzero;"/>
    <path d="M35.853,17.374L33.829,18.13L30.879,10.231L32.903,9.475L35.853,17.374Z" style="fill:#c480ad;fill-rule:nonzero;"/>
    <path d="M39.314,16.628C38.648,16.762 37.999,16.759 37.367,16.621C36.735,16.483 36.141,16.214 35.584,15.816L36.645,14.153C37.417,14.647 38.158,14.822 38.868,14.68C39.202,14.613 39.439,14.506 39.581,14.359C39.723,14.212 39.774,14.041 39.735,13.845C39.708,13.711 39.649,13.603 39.556,13.519C39.464,13.436 39.305,13.366 39.08,13.309C38.854,13.252 38.531,13.205 38.112,13.167C37.41,13.104 36.785,12.926 36.239,12.634C35.693,12.342 35.345,11.823 35.195,11.078C35.108,10.643 35.126,10.221 35.25,9.812C35.374,9.404 35.626,9.045 36.004,8.734C36.382,8.424 36.893,8.204 37.536,8.075C38.156,7.95 38.734,7.94 39.271,8.044C39.808,8.149 40.32,8.348 40.808,8.642L39.906,10.34C39.655,10.187 39.356,10.072 39.008,9.997C38.661,9.922 38.328,9.917 38.01,9.98C37.752,10.032 37.564,10.125 37.448,10.259C37.332,10.392 37.292,10.549 37.329,10.729C37.35,10.835 37.41,10.919 37.511,10.98C37.611,11.042 37.741,11.089 37.903,11.122C38.065,11.155 38.311,11.193 38.642,11.237L38.819,11.262C39.415,11.347 39.918,11.464 40.327,11.614C40.737,11.765 41.074,11.982 41.339,12.265C41.604,12.548 41.782,12.917 41.874,13.372C41.979,13.898 41.944,14.385 41.769,14.835C41.594,15.284 41.295,15.664 40.873,15.975C40.45,16.287 39.93,16.504 39.314,16.628Z" style="fill:#c480ad;fill-rule:nonzero;"/>
    <path d="M45.406,16.072C44.726,16.061 44.092,15.92 43.505,15.651C42.917,15.381 42.393,14.993 41.934,14.485L43.324,13.086C43.974,13.732 44.661,14.061 45.385,14.073C45.725,14.079 45.98,14.025 46.149,13.912C46.319,13.798 46.406,13.642 46.409,13.442C46.411,13.306 46.376,13.187 46.304,13.086C46.231,12.985 46.091,12.883 45.883,12.779C45.674,12.676 45.369,12.561 44.967,12.434C44.295,12.223 43.722,11.917 43.251,11.515C42.779,11.114 42.55,10.533 42.562,9.773C42.569,9.329 42.677,8.921 42.885,8.548C43.093,8.175 43.415,7.877 43.851,7.654C44.286,7.432 44.832,7.325 45.488,7.336C46.12,7.346 46.687,7.46 47.19,7.676C47.692,7.892 48.151,8.195 48.564,8.586L47.322,10.054C47.109,9.851 46.841,9.675 46.518,9.528C46.194,9.381 45.87,9.305 45.546,9.299C45.282,9.295 45.079,9.346 44.938,9.451C44.796,9.557 44.724,9.702 44.721,9.886C44.719,9.994 44.76,10.089 44.845,10.17C44.93,10.251 45.048,10.325 45.198,10.392C45.349,10.458 45.582,10.548 45.896,10.661L46.063,10.724C46.628,10.933 47.094,11.155 47.463,11.389C47.831,11.623 48.114,11.906 48.313,12.24C48.511,12.573 48.607,12.971 48.599,13.435C48.591,13.971 48.453,14.44 48.187,14.842C47.92,15.244 47.547,15.552 47.067,15.766C46.588,15.98 46.034,16.082 45.406,16.072Z" style="fill:#c480ad;fill-rule:nonzero;"/>
    <path d="M52.552,17.073C51.768,16.861 51.104,16.479 50.559,15.926C50.015,15.373 49.643,14.723 49.445,13.978C49.246,13.232 49.251,12.473 49.46,11.701C49.668,10.929 50.046,10.27 50.593,9.726C51.14,9.182 51.786,8.81 52.531,8.612C53.277,8.413 54.043,8.42 54.831,8.633C55.615,8.845 56.279,9.225 56.823,9.774C57.367,10.322 57.738,10.969 57.937,11.712C58.136,12.456 58.131,13.214 57.923,13.986C57.715,14.755 57.338,15.412 56.79,15.958C56.243,16.504 55.595,16.879 54.846,17.083C54.097,17.287 53.332,17.283 52.552,17.073ZM53.092,15.074C53.467,15.176 53.842,15.172 54.219,15.065C54.596,14.958 54.928,14.759 55.213,14.469C55.498,14.18 55.696,13.83 55.807,13.421C55.917,13.012 55.921,12.611 55.818,12.218C55.715,11.826 55.527,11.488 55.255,11.206C54.984,10.923 54.662,10.732 54.292,10.632C53.917,10.53 53.541,10.534 53.164,10.641C52.787,10.748 52.455,10.946 52.168,11.233C51.882,11.52 51.683,11.868 51.572,12.278C51.462,12.687 51.458,13.088 51.562,13.48C51.665,13.873 51.853,14.212 52.126,14.497C52.399,14.782 52.721,14.974 53.092,15.074Z" style="fill:#c480ad;fill-rule:nonzero;"/>
    <path d="M62.966,21.825L60.864,20.595L61.137,17.633C61.084,17.606 61.008,17.565 60.912,17.508L60.161,17.069L58.803,19.388L56.939,18.297L61.197,11.022L64.341,12.862C64.841,13.155 65.224,13.519 65.488,13.954C65.752,14.389 65.883,14.857 65.879,15.358C65.876,15.859 65.733,16.351 65.45,16.834C65.179,17.297 64.852,17.637 64.469,17.856C64.087,18.075 63.664,18.187 63.201,18.194L62.966,21.825ZM62.077,13.796L61.116,15.438L62.224,16.086C62.383,16.179 62.548,16.225 62.72,16.224C62.892,16.223 63.052,16.179 63.199,16.094C63.347,16.009 63.466,15.888 63.557,15.733C63.702,15.485 63.737,15.243 63.661,15.009C63.585,14.774 63.431,14.589 63.2,14.454L62.077,13.796Z" style="fill:#c480ad;fill-rule:nonzero;"/>
    <path d="M64.792,23.907C64.296,23.442 63.92,22.912 63.666,22.317C63.412,21.722 63.285,21.083 63.285,20.397L65.256,20.295C65.303,21.211 65.591,21.916 66.119,22.411C66.367,22.644 66.593,22.775 66.795,22.806C66.996,22.836 67.166,22.778 67.303,22.632C67.396,22.533 67.449,22.421 67.464,22.298C67.478,22.174 67.443,22.004 67.358,21.787C67.273,21.571 67.124,21.28 66.911,20.916C66.555,20.308 66.337,19.697 66.257,19.082C66.178,18.467 66.398,17.883 66.918,17.328C67.222,17.004 67.576,16.774 67.98,16.637C68.385,16.501 68.824,16.497 69.296,16.624C69.769,16.752 70.245,17.04 70.724,17.489C71.185,17.921 71.529,18.386 71.756,18.884C71.983,19.382 72.119,19.915 72.163,20.482L70.256,20.735C70.235,20.442 70.154,20.131 70.013,19.805C69.873,19.478 69.684,19.204 69.447,18.982C69.255,18.802 69.07,18.703 68.894,18.686C68.718,18.669 68.567,18.728 68.441,18.862C68.367,18.941 68.334,19.039 68.343,19.156C68.351,19.274 68.388,19.408 68.455,19.558C68.523,19.709 68.635,19.932 68.791,20.227L68.873,20.385C69.151,20.92 69.348,21.398 69.463,21.819C69.579,22.239 69.598,22.64 69.521,23.021C69.445,23.401 69.247,23.761 68.93,24.099C68.563,24.491 68.146,24.745 67.679,24.864C67.211,24.983 66.728,24.96 66.229,24.797C65.729,24.633 65.25,24.336 64.792,23.907Z" style="fill:#c480ad;fill-rule:nonzero;"/>
</svg>
