<?xml version="1.0" encoding="UTF-8" standalone="no"?>
<!DOCTYPE svg PUBLIC "-//W3C//DTD SVG 1.1//EN" "http://www.w3.org/Graphics/SVG/1.1/DTD/svg11.dtd">
<svg width="100%" height="100%" viewBox="0 0 90 90" version="1.1" xmlns="http://www.w3.org/2000/svg" xmlns:xlink="http://www.w3.org/1999/xlink" xml:space="preserve" xmlns:serif="http://www.serif.com/" style="fill-rule:evenodd;clip-rule:evenodd;stroke-linejoin:round;stroke-miterlimit:2;">
    <path d="M33.862,31.877C32.694,32.662 32.193,33.968 31.916,35.348C31.117,35.739 30.359,36.208 29.653,36.748C27.918,38.143 27.264,41.248 26.859,44.334C26.532,47.416 26.613,50.528 27.101,53.589C27.48,55.967 28.75,58.113 30.652,59.589C33.003,60.861 35.743,61.219 38.342,60.595C39.4,60.346 42.302,59.778 42.302,59.778C43.455,60.323 46.272,60.112 46.87,60.071C49.957,59.863 52.728,57.171 53.361,56.627C56.171,54.195 56.708,53.103 59.369,50.383C61.276,48.434 64.388,48.42 65.247,45.13C65.627,43.801 65.687,42.4 65.423,41.043C65.088,39.825 64.355,38.187 63.017,37.861C61.133,37.402 59.254,37.126 59.254,37.126C59.54,36.38 59.693,35.59 59.705,34.791C59.556,33.46 58.809,32.267 57.676,31.552C55.907,30.481 53.971,29.713 51.949,29.28C49.808,29.042 47.645,29.106 45.522,29.47C44.922,29.588 43.706,29.861 43.706,29.861C42.515,29.206 41.203,28.797 39.85,28.661C39.048,28.746 38.279,29.028 37.612,29.482C37.068,30.079 36.693,30.81 36.524,31.6C36.355,32.39 35.076,31.062 33.862,31.877Z" style="fill:#b24e90;fill-rule:nonzero;"/>
    <path d="M41.194,34.437C41.794,35.837 43.094,36.337 43.994,37.137C44.894,37.937 45.794,38.737 46.794,39.537C46.259,39.92 45.394,41.037 44.794,41.637C45.261,41.834 45.805,41.201 46.294,40.937C47.194,40.437 47.494,40.637 47.494,41.637C47.494,43.137 47.494,44.537 47.594,46.037C47.729,46.878 47.211,47.697 46.394,47.937C44.494,48.737 44.094,49.237 43.494,46.637C43.004,44.69 41.92,42.942 40.394,41.637C39.094,40.437 37.794,39.137 36.494,37.837C36.234,37.963 36.069,38.228 36.069,38.516C36.069,38.764 36.19,38.996 36.394,39.137C37.294,40.037 38.294,41.037 39.294,41.937C39.794,42.337 40.394,42.737 40.894,43.137C41.218,43.447 41.519,43.782 41.794,44.137C41.194,44.537 40.794,44.837 40.094,45.337C40.705,46.092 42.102,45 42.102,45C42.334,45.19 42.68,46.107 42.804,46.548C43.068,47.493 43.381,48.374 43.194,49.337C43.139,49.849 42.785,50.282 42.294,50.437C40.594,50.937 38.994,51.037 37.594,49.637L37.394,49.437C34.994,47.237 35.994,47.737 32.494,47.737C33.034,48.151 33.733,48.298 34.394,48.137C35.074,48.043 35.756,48.309 36.194,48.837C36.794,49.437 37.294,50.137 37.894,50.737C38.319,51.112 38.719,51.512 39.094,51.937C38.794,52.837 38.494,53.837 38.194,54.737C38.294,54.737 38.394,54.837 38.494,54.837C38.794,54.437 39.094,53.937 39.394,53.537C39.666,53.125 39.9,52.69 40.094,52.237C40.394,51.637 40.994,51.837 41.494,51.837C41.994,51.837 42.094,52.237 42.194,52.637C42.294,53.037 42.394,53.437 42.494,53.937C43.094,51.437 44.894,49.837 46.894,48.537C48.094,47.737 49.194,46.937 50.394,46.137C51.421,45.616 52.544,45.309 53.694,45.237C54.194,46.637 54.794,48.037 55.294,49.437C55.194,47.837 54.594,46.337 55.094,44.737C56.494,45.137 57.494,46.237 59.094,46.137C58.794,46.037 56.994,45.237 56.294,44.937C54.445,43.888 53.633,41.622 54.394,39.637C54.536,39.276 54.779,38.963 55.094,38.737C56.054,38.124 57.265,38.049 58.294,38.537C58.93,38.809 59.605,38.977 60.294,39.037C60.722,39.12 61.158,39.154 61.594,39.137C62.537,39.148 63.378,39.749 63.694,40.637C64.257,41.968 64.328,43.458 63.894,44.837C63.681,45.407 63.338,45.921 62.894,46.337C62.34,46.85 61.696,47.257 60.994,47.537C59.171,48.492 57.569,49.821 56.294,51.437C54.994,52.937 53.694,54.337 52.394,55.637C50.916,57.201 48.932,58.193 46.794,58.437C45.627,58.504 44.456,58.47 43.294,58.337C42.693,58.27 42.084,58.304 41.494,58.437C39.994,58.837 38.394,59.137 36.894,59.437C35.995,59.554 35.082,59.52 34.194,59.337C32.318,59.13 30.683,57.951 29.894,56.237C28.942,54.414 28.429,52.393 28.394,50.337C28.225,47.597 28.359,44.847 28.794,42.137C29.046,40.072 30.225,38.231 31.994,37.137C32.889,36.585 33.562,35.735 33.894,34.737C34.494,33.137 34.994,32.937 36.694,33.237C37.137,33.338 37.571,33.472 37.994,33.637C38.04,33.458 38.003,33.146 37.994,33.137C37.824,32.049 38.524,30.999 39.594,30.737C39.945,30.605 40.325,30.571 40.694,30.637C41.494,30.937 42.194,31.237 42.994,31.537C43.604,31.83 44.24,32.064 44.894,32.237C45.994,32.537 47.194,32.837 48.294,33.137C48.994,33.337 49.594,33.737 50.394,34.037C50.362,34.513 48.941,36.37 49.094,36.437C49.449,36.593 50.499,34.922 50.994,34.837C51.397,36.037 51.723,37.652 51.803,38.669C51.914,40.08 51.908,41.463 51.694,43.237C51.598,44.202 51.086,45.078 50.294,45.637C49.594,46.137 49.094,45.937 48.894,45.137C48.779,44.747 48.712,44.344 48.694,43.937C48.694,43.437 48.594,42.937 48.594,42.437C48.637,40.438 47.655,38.55 45.994,37.437C45.017,36.725 44.082,35.957 43.194,35.137C42.494,34.737 42.094,34.337 41.194,34.437Z" style="fill:#fff;fill-rule:nonzero;"/>
    <path d="M52.347,43.935C52.447,43.335 52.447,42.835 52.547,42.335C52.816,39.963 52.681,37.562 52.147,35.235C51.94,34.097 51.194,33.127 50.147,32.635L46.847,31.435C46.447,31.335 46.147,31.235 45.447,31.035C47.457,30.313 49.642,30.231 51.7,30.8C52.9,31.1 54.845,31.638 56.045,32.038C57.309,32.513 58.095,33.796 57.945,35.138C57.922,35.709 57.855,36.277 57.745,36.838C57.345,36.838 56.307,36.675 54.945,37.338C53.801,37.895 53.426,39.148 53.347,40.012C53.264,40.921 53.545,42.638 53.545,42.638C53.547,43.535 53.547,43.535 52.347,43.935Z" style="fill:#fff;fill-rule:nonzero;"/>
    <path d="M36.66,16.877L34.436,17.871L32.187,15.925C32.133,15.953 32.056,15.99 31.953,16.036L31.159,16.391L32.256,18.845L30.284,19.726L26.844,12.03L30.169,10.544C30.699,10.307 31.217,10.208 31.725,10.246C32.233,10.284 32.689,10.45 33.095,10.745C33.5,11.039 33.817,11.442 34.046,11.953C34.264,12.442 34.351,12.906 34.306,13.345C34.261,13.783 34.107,14.193 33.843,14.574L36.66,16.877ZM29.612,12.929L30.388,14.665L31.56,14.141C31.728,14.066 31.862,13.958 31.961,13.818C32.06,13.677 32.118,13.522 32.134,13.353C32.151,13.183 32.122,13.016 32.049,12.852C31.931,12.589 31.755,12.42 31.52,12.346C31.285,12.271 31.045,12.288 30.801,12.398L29.612,12.929Z" style="fill:#c480ad;fill-rule:nonzero;"/>
    <path d="M40.96,16.355C40.156,16.468 39.395,16.376 38.677,16.081C37.959,15.786 37.363,15.334 36.888,14.726C36.413,14.118 36.12,13.418 36.009,12.626C35.898,11.834 35.987,11.08 36.277,10.365C36.566,9.65 37.015,9.055 37.623,8.58C38.231,8.105 38.939,7.811 39.747,7.698C40.551,7.585 41.311,7.674 42.027,7.966C42.742,8.258 43.337,8.706 43.812,9.312C44.286,9.918 44.579,10.618 44.69,11.41C44.801,12.198 44.711,12.951 44.422,13.668C44.133,14.385 43.683,14.984 43.074,15.465C42.465,15.946 41.76,16.243 40.96,16.355ZM40.673,14.305C41.057,14.251 41.402,14.101 41.706,13.854C42.011,13.608 42.238,13.295 42.387,12.917C42.536,12.539 42.581,12.139 42.522,11.72C42.463,11.3 42.31,10.929 42.061,10.609C41.812,10.288 41.507,10.051 41.146,9.898C40.785,9.744 40.415,9.694 40.035,9.748C39.65,9.801 39.306,9.952 39.001,10.198C38.696,10.445 38.468,10.757 38.317,11.133C38.166,11.51 38.12,11.908 38.179,12.328C38.237,12.748 38.391,13.118 38.64,13.439C38.889,13.759 39.195,13.997 39.558,14.152C39.921,14.307 40.293,14.358 40.673,14.305Z" style="fill:#c480ad;fill-rule:nonzero;"/>
    <path d="M49.937,16.481C49.133,16.367 48.427,16.07 47.818,15.588C47.21,15.106 46.761,14.507 46.473,13.792C46.184,13.076 46.096,12.323 46.208,11.531C46.32,10.739 46.614,10.039 47.089,9.432C47.565,8.825 48.161,8.377 48.876,8.088C49.591,7.799 50.353,7.712 51.161,7.826C51.695,7.902 52.191,8.062 52.647,8.306C53.103,8.55 53.499,8.86 53.833,9.234L52.403,10.692C52.214,10.492 51.982,10.316 51.709,10.164C51.435,10.012 51.156,9.916 50.871,9.876C50.487,9.821 50.114,9.871 49.753,10.024C49.392,10.177 49.087,10.413 48.838,10.733C48.589,11.054 48.435,11.424 48.375,11.843C48.316,12.263 48.361,12.661 48.512,13.038C48.663,13.415 48.891,13.728 49.197,13.977C49.503,14.226 49.846,14.378 50.227,14.432C50.536,14.475 50.819,14.469 51.078,14.413C51.336,14.356 51.625,14.238 51.946,14.057L52.896,15.863C52.47,16.134 52.004,16.324 51.498,16.432C50.992,16.54 50.471,16.557 49.937,16.481Z" style="fill:#c480ad;fill-rule:nonzero;"/>
    <path d="M60.467,20.018L58.107,18.991L57.482,15.147L56.202,15.774L55.328,17.782L53.347,16.92L56.711,9.19L58.692,10.052L57.372,13.083L61.134,11.115L63.55,12.166L59.423,14.191L60.467,20.018Z" style="fill:#c480ad;fill-rule:nonzero;"/>
</svg>
