<?xml version="1.0" encoding="UTF-8" standalone="no"?>
<!DOCTYPE svg PUBLIC "-//W3C//DTD SVG 1.1//EN" "http://www.w3.org/Graphics/SVG/1.1/DTD/svg11.dtd">
<svg width="100%" height="100%" viewBox="0 0 500 500" version="1.1" xmlns="http://www.w3.org/2000/svg" xmlns:xlink="http://www.w3.org/1999/xlink" xml:space="preserve" xmlns:serif="http://www.serif.com/" style="fill-rule:evenodd;clip-rule:evenodd;stroke-miterlimit:10;">
    <g>
        <circle cx="250" cy="250" r="52" style="fill:#fff;"/>
        <path d="M206.875,220.951C216.224,207.108 232.057,198 250,198C266.961,198 282.037,206.138 291.53,218.719C293.185,221.817 294.544,225.064 295.6,228.4C298.1,236.7 298.9,245.8 296.9,254.4C295,262.6 290.7,270.1 284.7,275.9C278.6,281.8 270.9,285.8 262.6,287.3C254,288.9 245.1,287.9 237.4,283.6C230.1,279.5 224.4,272.8 221.6,264.9C218.7,256.7 218.8,247.4 222.9,239.7C226.9,232.3 234.2,227 242.5,225.5C251,224 259.8,226.8 265.2,233.9C270.4,240.7 271.6,250.6 266.5,257.8C261.6,264.7 251.4,267.8 244.1,262.9C236.9,258.1 235,246.7 242.7,241.5C246.2,239.1 251.2,238.7 254.7,241.4C258.1,244 259.6,249.1 257,252.8C254.6,256.4 248.9,257.4 246.2,253.6C244.9,251.9 244.7,249.5 245.8,247.7C246.9,245.9 249.2,244.9 251.2,245.8C253.1,246.6 254.3,249.2 253,251.1C251.7,252.9 248.5,252.7 248.2,250.3C247.958,248.482 249.588,247.913 250.688,248.258C249.596,247.712 248.101,248.416 247.7,249.7C247.2,251.3 248.4,252.9 250,253.2C253.9,254 255.1,248.9 252.8,246.6C250.3,244.1 246.3,245.3 244.7,248.2C243.1,251.2 244.4,254.8 247.2,256.7C250,258.5 253.6,258.1 256.2,256.1C261.9,251.7 260.1,243.3 254.5,239.9C248.6,236.3 241.3,238.9 237.6,244.3C233.7,249.9 234.8,257.2 238.9,262.4C242.9,267.4 249.5,269.9 255.9,268.8C262.3,267.7 268,263.3 271.1,257.6C274.2,251.8 274.5,245 272.2,238.8C269.9,232.8 265.4,227.7 259.8,224.5C254.2,221.3 247.6,220.2 241.3,221.3C234.9,222.5 228.7,225.8 224.1,230.4C219.6,234.8 216.2,240.5 214.6,246.6C212.9,252.9 213.1,259.6 215.1,265.8C217,272.1 220.5,277.9 225.1,282.6C229.5,287.2 234.9,290.8 240.8,293.2C246.7,295.5 253.2,296.5 259.6,296.1C266.3,295.7 272.7,293.6 278.7,290.5C283.663,287.933 288.114,284.634 291.989,280.664C282.526,293.595 267.237,302 250,302C233.937,302 219.565,294.701 210.026,283.244L210,283.2C205.6,275.8 203,267.4 202.5,258.8C202,250.1 203.8,241.4 208.1,233.8C212.2,226.6 218.4,220.6 225.8,216.7C233.4,212.7 242.5,210.8 251,212.1C259.4,213.3 267.2,217.6 272.7,224.1C278.2,230.6 281.2,239.2 281,247.8C280.7,256.3 276.4,264.4 269.4,269.3C262.5,274.3 253,276.3 244.9,273.1C236.9,270 231.3,262.4 230.7,253.8C230.1,245.1 235.7,236.9 244.3,234.8C253,232.7 262.1,238.2 262.8,247.4C263.1,251.8 261.2,255.9 257.5,258.3C253.9,260.6 249,260.7 245.6,258C242.3,255.3 241.1,250.1 243.7,246.6C246.3,243.2 252,242.4 254.5,246.3C255.7,248.1 255.8,250.5 254.5,252.2C253.2,253.9 250.8,254.7 248.9,253.6C247.1,252.5 246.3,249.8 247.9,248.2C249.4,246.7 252.7,247.4 252.4,249.9C252.1,252.6 248,251.7 249.1,249.6C249.215,249.417 249.387,249.276 249.584,249.18C249.727,249.003 249.932,248.977 250.134,249.037C250.342,249.023 250.547,249.054 250.721,249.134C249.895,247.939 247.671,249.342 248.5,251C249.4,252.7 251.7,252 252.3,250.5C252.9,248.9 251.6,247.2 250.1,246.9C246.2,246.1 245,251.3 247.4,253.7C250,256.2 254.1,254.7 255.5,251.7C257,248.6 255.3,245 252.6,243.3C246.2,239.5 239.1,246.6 240.5,253.3C241.9,260.1 249.5,263.8 255.8,261.3C262.1,258.8 265.8,252.3 264.8,245.6C263.7,239.1 258.4,233.6 252.2,231.9C245.7,230.1 238.7,232.3 233.8,236.8C228.9,241.2 226.3,247.6 226.5,254.1C226.8,260.7 230.1,267.2 234.9,271.7C239.6,276.1 245.8,278.9 252.2,279.3C258.9,279.8 265.6,277.6 271.2,273.9C276.6,270.3 281,265.2 283.7,259.3C286.4,253.4 287.5,246.7 286.5,240.2C285.6,233.5 282.7,227.1 278.8,221.7C274.9,216.5 270,212.2 264.3,209.1C258.6,206 252.2,204.2 245.8,203.9C239,203.6 232.3,204.9 226.1,207.5C220,210 214.4,213.7 209.5,218.3C208.591,219.151 207.716,220.036 206.875,220.951ZM249.493,249.337C249.129,249.568 248.923,250.086 249.1,250.5C249.642,252.125 252.057,250.979 251.639,249.417C251.635,249.595 251.592,249.79 251.5,250C251.312,250.47 250.815,250.741 250.352,250.762C250.128,250.833 249.864,250.798 249.6,250.6C249.3,250.412 249.281,250.126 249.396,249.889C249.396,249.86 249.398,249.831 249.4,249.8C249.41,249.606 249.443,249.454 249.493,249.337ZM250.269,249.601C249.849,249.609 249.745,249.8 249.812,250.018L249.6,250.2C249.731,250.461 249.947,250.52 250.15,250.463C249.988,250.336 249.859,250.17 249.812,250.018L250.283,249.615C250.327,249.663 250.366,249.724 250.4,249.8L250.3,250.1C250.444,250.09 250.553,250.062 250.632,250.021C250.553,250.227 250.358,250.405 250.15,250.463C250.274,250.559 250.417,250.633 250.557,250.661C250.493,250.704 250.425,250.739 250.352,250.762C249.852,250.784 249.39,250.515 249.396,249.889C249.559,249.554 249.99,249.318 250.269,249.601Z" style="fill:#ff4757;fill-rule:nonzero;"/>
        <g>
            <circle cx="250" cy="250" r="3.2" style="fill:#ff4757;"/>
        </g>
        <circle cx="250" cy="250" r="52" style="fill:none;stroke:#fff;stroke-width:1px;"/>
    </g>
</svg>
