<?xml version="1.0" encoding="UTF-8" standalone="no"?>
<!DOCTYPE svg PUBLIC "-//W3C//DTD SVG 1.1//EN" "http://www.w3.org/Graphics/SVG/1.1/DTD/svg11.dtd">
<svg width="100%" height="100%" viewBox="0 0 600 600" version="1.1" xmlns="http://www.w3.org/2000/svg" xmlns:xlink="http://www.w3.org/1999/xlink" xml:space="preserve" xmlns:serif="http://www.serif.com/" style="fill-rule:evenodd;clip-rule:evenodd;stroke-linecap:round;stroke-linejoin:round;stroke-miterlimit:1.5;">
    <circle cx="300" cy="300" r="299" style="fill:none;stroke:#7b7b7b;stroke-width:1px;"/>
    <path d="M410.071,571.186C410.071,566.348 406.007,557.068 403.752,552.92C398.262,542.827 391.078,529.634 386.898,518.835C374.135,485.857 365.444,465.322 350.935,433.124C343.203,415.963 334.151,390.995 328.034,372.886C323.172,358.493 303.844,310.611 300,300.024" style="fill:none;stroke:#0064db;stroke-width:3px;stroke-linecap:square;"/>
    <path d="M210.461,580.174C222.12,527.642 233.358,506.241 242.857,479.203C247.041,467.291 258.974,425.385 262.98,413.44C271.929,386.751 296.145,312.468 296.145,300" style="fill:none;stroke:#0064db;stroke-width:3px;stroke-linecap:square;"/>
    <path d="M299.214,300.85C279.945,310.785 255.113,330.916 237.809,338.697C197.487,356.828 107.913,419.074 80.419,434.596C75.919,437.137 71.754,441.026 66.717,442.743C59.924,445.061 54.586,445.734 49.101,451.199" style="fill:none;stroke:#0064db;stroke-width:3px;stroke-linecap:square;"/>
    <path d="M301.114,297.946C288.187,296.579 250.395,294.761 235.894,291.33C205.35,284.1 181.121,283.952 150.903,275.907C117.766,267.083 87.231,261.995 53.023,258.559C35.842,256.834 25.954,251.936 8.776,251.936" style="fill:none;stroke:#0064db;stroke-width:3px;stroke-linecap:square;"/>
    <path d="M296.145,297.946C288.691,289.415 272.739,270.189 265.373,261.433C250.819,244.133 223.378,213.112 207.027,193.677C192.26,176.123 165.487,148.77 150.588,131.282C145.684,125.527 114.798,85.781 111.203,80.407" style="fill:none;stroke:#0064db;stroke-width:3px;stroke-linecap:square;"/>
    <path d="M299.32,300.357C299.32,262.436 299.186,224.999 302.291,187.487C304.436,161.579 300.437,135.475 300.437,109.571C300.437,89.617 302.095,69.321 300.407,49.424C299.65,40.498 299.316,31.661 299.316,22.697C299.316,21.933 299.156,9.87 300,9.87" style="fill:none;stroke:#0064db;stroke-width:3px;stroke-linecap:square;"/>
    <path d="M560.806,435.053C551.095,431.964 504.665,409.89 486.489,396.903C471.399,386.121 445.668,375.802 429.194,367.548C400.785,353.313 380.504,340.522 352.754,325.045C345.103,320.778 304.484,300 296.145,300" style="fill:none;stroke:#0064db;stroke-width:3px;stroke-linecap:square;"/>
</svg>
