<?xml version="1.0" encoding="UTF-8" standalone="no"?>
<!DOCTYPE svg PUBLIC "-//W3C//DTD SVG 1.1//EN" "http://www.w3.org/Graphics/SVG/1.1/DTD/svg11.dtd">
<svg width="100%" height="100%" viewBox="0 0 90 90" version="1.1" xmlns="http://www.w3.org/2000/svg" xmlns:xlink="http://www.w3.org/1999/xlink" xml:space="preserve" xmlns:serif="http://www.serif.com/" style="fill-rule:evenodd;clip-rule:evenodd;stroke-linejoin:round;stroke-miterlimit:2;">
    <path d="M30.349,52.681C29.528,55.308 28.882,58.676 29.006,60.64C29.087,61.922 29.287,63.022 29.914,64.15C30.32,64.88 31.135,65.482 31.942,65.7C32.025,66.475 32.272,67.223 32.666,67.895C33.348,68.91 34.486,69.528 35.708,69.549C36.594,69.474 37.414,69.046 37.982,68.362C38.339,68.67 38.76,68.897 39.214,69.027C40.105,69.243 41.048,68.993 41.714,68.363C42.202,67.85 42.817,67.109 43.134,66.476C44.068,64.941 44.893,63.072 44.893,63.072C45.263,63.362 45.679,63.586 46.124,63.736C46.598,63.892 47.116,63.851 47.56,63.624C48.374,63.204 49.068,62.585 49.578,61.824C51.09,59.876 52.254,57.681 53.018,55.337C53.288,54.585 53.596,53.848 53.942,53.128C54.625,51.567 55.624,50.164 56.876,49.009C58.876,46.949 59.946,44.7 61.076,41.474C62.233,38.353 62.703,35.019 62.452,31.7C62.403,30.448 62.072,29.224 61.483,28.118C61.248,27.7 59.4,25 56.913,24.662C55.535,24.508 54.146,24.471 52.761,24.553C51.839,24.351 50.946,24.036 50.101,23.617C48.633,22.989 47.078,22.591 45.489,22.437C44.166,22.388 42.57,23.006 39.533,25.063C37.501,26.387 35.616,27.923 33.909,29.645C33.595,30.008 33.317,30.401 33.08,30.818C32.631,31.471 32.241,32.162 31.913,32.883C31.322,34.565 30.556,36.18 29.628,37.703C28.964,38.665 28.386,39.683 27.898,40.745C27.263,41.956 26.878,43.282 26.767,44.645C26.797,45.518 27.204,46.336 27.881,46.888C29.364,48.097 31.378,48.173 32.757,46.847C31.727,48.768 31.029,50.61 30.349,52.681Z" style="fill:#b24e90;fill-rule:nonzero;"/>
    <path d="M34.29,61.952C34.084,62.447 33.815,62.914 33.49,63.341C33.272,63.798 32.809,64.09 32.303,64.09C31.788,64.09 31.318,63.787 31.105,63.319C30.762,62.793 30.543,62.196 30.463,61.573C30.196,59.359 30.379,57.114 31.002,54.973C31.716,52.087 33.124,49.421 34.227,46.673C34.751,45.34 35.275,44.008 35.715,42.62C35.935,41.926 36.394,40.768 36.689,40.206C37.712,38.26 38.727,36.407 39.649,35.771C40.158,35.419 41.355,35.186 42.132,35.071C42.132,35.071 40.596,34.362 40.576,33.959C40.576,33.959 40.582,33.553 41.213,32.978C41.213,32.978 40.493,33.024 39.805,33.709C38.902,34.608 37.331,37.78 36.151,39.427L35.674,39.289C35.427,39.332 35.529,39.491 35.588,39.571C35.817,39.879 35.985,40.418 35.738,40.957C35.14,42.762 34.07,44.373 32.638,45.624C31.769,46.462 30.474,46.696 29.367,46.214C28.73,45.985 28.312,45.367 28.337,44.691C28.456,43.8 28.639,42.919 28.885,42.055C29.168,41.259 29.549,40.501 30.021,39.8C31.413,37.616 32.588,35.3 33.527,32.886C34.006,31.772 34.712,30.77 35.6,29.943C37.829,27.76 40.378,25.93 43.159,24.517C43.995,24.054 44.98,23.932 45.904,24.178C47.597,24.701 49.29,25.224 50.928,25.83C51.591,26.084 52.302,26.187 53.009,26.13C54.467,25.964 55.945,26.16 57.309,26.702C59.163,27.436 60.441,29.171 60.592,31.159C61.1,36.121 60.014,41.118 57.492,45.422C56.653,46.952 55.602,48.356 54.368,49.59C53.401,50.626 52.666,51.857 52.213,53.2L50.063,58.613C49.709,59.446 49.265,60.238 48.737,60.974C48.365,61.468 47.917,61.9 47.409,62.253C46.91,62.58 46.251,62.536 45.8,62.146C45.341,61.876 45.114,61.332 45.242,60.816C45.361,60.076 45.526,59.344 45.736,58.624C46.645,55.987 47.692,53.324 48.736,50.657C49.591,48.464 49.29,48.952 50.698,48.27C49.483,48.269 48.85,48.466 48.262,49.743C46.554,54.49 44.846,59.237 43.054,63.928C42.723,64.735 42.296,65.499 41.784,66.205C41.5,66.65 41.098,67.006 40.622,67.234C40.403,67.358 40.155,67.423 39.903,67.423C39.175,67.423 38.553,66.879 38.456,66.158C38.364,65.426 38.409,64.683 38.589,63.967C38.589,63.606 38.726,63.218 38.725,62.857C39.139,62.052 39.498,61.33 39.912,60.524L43.634,51.113C43.926,50.359 44.142,49.666 44.624,49.017C44.257,48.946 44.164,48.852 43.9,48.604C43.935,49.162 43.472,49.866 43.278,50.391C42.726,51.585 42.178,52.779 41.761,53.945C41.127,55.445 40.661,57.054 40.108,58.608C39.668,59.996 39.308,61.439 38.87,62.827L38.044,65.159C37.785,65.818 37.481,66.458 37.133,67.075C36.822,67.552 36.29,67.841 35.721,67.841C35.384,67.841 35.056,67.74 34.777,67.552C33.503,66.829 32.988,65.231 33.6,63.9C33.796,63.241 34.026,62.592 34.289,61.957C34.427,61.568 34.589,60.948 34.851,60.232C35.603,58.204 36.18,56.483 36.989,54.268C36.989,54.268 38.037,51.783 38.36,50.885C38.577,50.291 39.082,49.094 39.353,48.518C39.587,48.022 39.781,47.6 40.237,47.296C39.858,47.105 39.66,46.493 39.37,46.11C39.604,46.804 38.941,47.882 38.774,48.492C38.416,49.575 37.919,50.685 37.423,51.792C36.06,55.072 35.011,58.474 34.29,61.952ZM53.241,42.242C52.991,42.076 52.824,41.966 52.686,41.994C50.964,41.624 49.192,41.544 47.444,41.757C46.06,42.038 44.626,41.955 43.283,41.517C42.589,41.297 42.006,40.91 41.312,40.69C42.195,41.7 43.471,42.283 44.812,42.29L50.636,42.19C51.502,42.265 52.372,42.282 53.241,42.242ZM49.43,37.275C50.357,36.9 50.696,35.112 50.717,33.357C50.736,31.766 50.494,30.202 50.192,29.743C50.684,31.431 50.377,34.366 50.374,34.391C50.243,35.497 50.05,36.237 49.43,37.275Z" style="fill:#fff;fill-rule:nonzero;"/>
    <path d="M28.69,20.751L24.71,13.32L27.783,11.674C28.318,11.387 28.846,11.243 29.365,11.242C29.884,11.241 30.355,11.371 30.778,11.632C31.202,11.893 31.541,12.261 31.796,12.737C32.072,13.252 32.209,13.762 32.207,14.266C32.205,14.771 32.062,15.239 31.778,15.67C31.494,16.101 31.079,16.463 30.532,16.756L29.342,17.394L30.594,19.731L28.69,20.751ZM29.458,15.119C29.627,15.029 29.761,14.91 29.859,14.762C29.956,14.614 30.01,14.453 30.018,14.278C30.027,14.104 29.987,13.935 29.901,13.773C29.817,13.618 29.704,13.501 29.561,13.424C29.417,13.347 29.259,13.311 29.088,13.317C28.916,13.322 28.746,13.371 28.576,13.461L27.535,14.019L28.421,15.675L29.458,15.119Z" style="fill:#c480ad;fill-rule:nonzero;"/>
    <path d="M41.48,15.833L39.33,16.411L38.552,15.253L35.631,16.04L35.539,17.432L33.389,18.01L34.335,9.01L36.161,8.519L41.48,15.833ZM35.916,11.649L35.754,14.142L37.499,13.672L36.107,11.597L35.915,11.251L35.903,11.255L35.916,11.649Z" style="fill:#c480ad;fill-rule:nonzero;"/>
    <path d="M41.899,15.974L41.764,7.544L45.25,7.488C45.858,7.478 46.393,7.592 46.855,7.828C47.317,8.065 47.676,8.396 47.933,8.822C48.19,9.248 48.323,9.731 48.331,10.271C48.341,10.855 48.229,11.371 47.996,11.819C47.763,12.267 47.422,12.617 46.972,12.871C46.522,13.124 45.987,13.255 45.367,13.265L44.017,13.287L44.059,15.939L41.899,15.974ZM45.161,11.318C45.353,11.315 45.527,11.27 45.681,11.184C45.836,11.097 45.957,10.978 46.045,10.827C46.132,10.675 46.175,10.508 46.172,10.324C46.169,10.148 46.121,9.992 46.029,9.858C45.937,9.723 45.813,9.619 45.658,9.546C45.503,9.472 45.329,9.437 45.137,9.44L43.955,9.459L43.985,11.337L45.161,11.318Z" style="fill:#c480ad;fill-rule:nonzero;"/>
    <path d="M55.088,17.524L49.047,16.058L51.035,7.866L56.988,9.31L56.529,11.205L52.674,10.27L52.365,11.547L55.379,12.279L54.953,14.034L51.939,13.302L51.606,14.672L55.548,15.629L55.088,17.524Z" style="fill:#c480ad;fill-rule:nonzero;"/>
    <path d="M61.988,21.1L59.837,19.958L59.988,16.988C59.933,16.964 59.856,16.925 59.757,16.873L58.989,16.464L57.728,18.838L55.821,17.825L59.774,10.381L62.99,12.089C63.502,12.361 63.9,12.709 64.182,13.133C64.464,13.557 64.613,14.019 64.631,14.52C64.648,15.02 64.525,15.517 64.262,16.012C64.011,16.485 63.699,16.839 63.325,17.073C62.952,17.307 62.534,17.437 62.072,17.464L61.988,21.1ZM60.767,13.116L59.875,14.796L61.009,15.398C61.171,15.484 61.339,15.523 61.51,15.515C61.682,15.507 61.84,15.457 61.984,15.365C62.127,15.274 62.241,15.149 62.326,14.99C62.461,14.736 62.486,14.493 62.4,14.262C62.315,14.031 62.153,13.852 61.917,13.727L60.767,13.116Z" style="fill:#c480ad;fill-rule:nonzero;"/>
</svg>
