<?xml version="1.0" encoding="UTF-8" standalone="no"?>
<!DOCTYPE svg PUBLIC "-//W3C//DTD SVG 1.1//EN" "http://www.w3.org/Graphics/SVG/1.1/DTD/svg11.dtd">
<svg width="100%" height="100%" viewBox="0 0 90 90" version="1.1" xmlns="http://www.w3.org/2000/svg" xmlns:xlink="http://www.w3.org/1999/xlink" xml:space="preserve" xmlns:serif="http://www.serif.com/" style="fill-rule:evenodd;clip-rule:evenodd;stroke-linejoin:round;stroke-miterlimit:2;">
    <path d="M56.505,33.412C56.099,32.555 55.354,31.905 54.45,31.618C53.517,31.502 52.576,31.471 51.638,31.527C50.066,31.62 50.115,30.838 48.703,30.836C47.854,30.986 47.041,31.291 46.303,31.736C43.576,33.101 40.772,34.303 37.903,35.336C37.169,35.514 36.446,35.733 35.737,35.992C35.382,36.154 35.103,36.446 34.958,36.808C34.082,36.589 33.189,36.446 32.289,36.379C31.613,36.27 30.919,36.363 30.295,36.645C30.024,36.823 29.8,37.063 29.641,37.345C29.106,37.329 28.571,37.36 28.041,37.437C27.174,37.732 26.617,38.588 26.7,39.5C26.7,41.151 27.438,41.911 28.615,42.739C29.632,43.454 30.797,43.627 31.754,43.825C32.898,44.062 34.611,44.146 35.481,44.16C36.261,44.123 37.204,44.153 37.868,43.996C37.77,44.625 37.723,45.26 37.725,45.896C37.682,47.136 38.312,48.306 39.371,48.953C40.208,49.331 41.087,49.609 41.989,49.781C42.891,49.953 42.55,50.868 43.165,51.887C43.946,53.123 45.173,54.013 46.59,54.372C46.868,55.17 47.475,55.811 48.257,56.131C49.333,56.703 50.489,57.107 51.687,57.331C54.115,57.963 56.677,57.855 59.044,57.022C60.623,56.252 61.817,54.864 62.344,53.188C62.588,52.454 62.644,50.877 61.802,46.45C61.353,44.195 60.685,41.99 59.808,39.865C58.85,37.644 57.747,35.488 56.505,33.412Z" style="fill:#b24d90;fill-rule:nonzero;"/>
    <path d="M57.9,54.917C57.6,54.917 57.3,55.017 57,55.017C55.211,55.27 53.387,55.064 51.7,54.417C50.055,53.753 48.876,52.269 48.6,50.517C49.3,50.617 49.9,50.717 50.5,50.817C48.7,49.817 47,48.717 44.8,48.717C43.8,48.717 42.8,48.617 41.7,48.517C41.312,48.525 40.93,48.421 40.6,48.217C39.631,47.991 38.939,47.12 38.939,46.125C38.939,45.954 38.96,45.783 39,45.617C39,45.417 39.1,45.217 39.1,45.017C39.5,43.417 39.5,43.317 41.2,43.217C43.069,43.182 44.938,43.249 46.8,43.417C48.6,43.517 50.3,43.617 52.1,43.817C53.3,43.917 54.4,44.217 55.6,44.317C55.939,44.354 56.273,44.421 56.6,44.517C56.037,44.008 55.345,43.662 54.6,43.517C53.3,43.217 52.1,42.917 50.8,42.617C49.8,42.317 49.7,42.217 49.4,41.117C50.2,40.717 51.1,40.417 51.9,39.917C52.744,39.488 53.415,38.782 53.8,37.917C50.404,40.219 46.548,41.754 42.5,42.417C40.778,42.734 39.009,42.7 37.3,42.317C36.533,42.159 35.792,41.893 35.1,41.526C34.773,41.323 34.499,41.046 34.3,40.717C33.843,40.112 33.765,39.298 34.1,38.617C34.5,37.917 35.2,38.017 35.8,38.117C37.189,38.333 38.597,38.4 40,38.317C40.526,38.392 41.034,38.562 41.5,38.817C41.3,38.017 41.3,37.817 42.1,37.317C43.673,36.091 45.883,36.05 47.5,37.217C47.5,36.217 46.8,36.117 45.8,35.917C47.7,34.617 49.3,33.317 51.4,32.917C51.6,32.917 51.9,32.817 52.1,32.817C53.599,32.456 55.159,33.214 55.8,34.617C58.2,39.117 60.4,43.717 61,48.917C61.1,49.817 61.3,50.717 61.4,51.617C61.529,53.646 60.242,55.515 58.3,56.117C56.793,56.649 55.175,56.787 53.6,56.517C51.734,56.406 49.935,55.783 48.4,54.717C48.638,54.701 48.876,54.735 49.1,54.817C50.6,55.117 52,55.517 53.5,55.717C54.567,55.782 55.639,55.749 56.7,55.617C57.131,55.538 57.54,55.367 57.9,55.117L57.9,54.917Z" style="fill:#fff;fill-rule:nonzero;"/>
    <path d="M36.4,37.117C40.3,36.017 43.8,34.117 47.4,32.617C48.132,32.185 49.034,32.147 49.8,32.517C49.485,32.694 49.184,32.894 48.9,33.117C46.8,34.217 44.7,35.317 42.5,36.417C40.883,37.197 39.091,37.542 37.3,37.417C36.996,37.396 36.589,37.306 36.4,37.117Z" style="fill:#fff;fill-rule:nonzero;"/>
    <path d="M43.8,49.917C44.934,49.736 46.095,49.805 47.2,50.117C47.674,50.208 48.06,50.555 48.2,51.017C48.527,51.737 48.894,52.438 49.3,53.117C49.43,53.405 49.598,53.674 49.8,53.917C47.181,53.917 44.807,52.334 43.8,49.917Z" style="fill:#fff;fill-rule:nonzero;"/>
    <path d="M35.1,42.717C33.593,42.659 32.148,42.095 31,41.117C30.48,40.641 30.129,40.009 30,39.317C29.972,39.214 29.957,39.109 29.957,39.002C29.957,38.368 30.466,37.84 31.1,37.817C31.802,37.751 32.509,37.737 33.213,37.773C32.742,38.653 32.7,39.702 33.1,40.617C33.559,41.489 34.251,42.216 35.1,42.717Z" style="fill:#fff;fill-rule:nonzero;"/>
    <path d="M31.472,42.417C30.45,42.235 29.494,41.786 28.7,41.117C28.301,40.7 28.024,40.181 27.9,39.617C27.7,38.717 28.466,38.229 29.366,38.229C29.243,38.808 29.259,39.408 29.413,39.979C29.845,40.976 30.561,41.824 31.472,42.417Z" style="fill:#fff;fill-rule:nonzero;"/>
    <path d="M31.3,19.17L26.614,22.329L21.902,15.341L23.693,14.134L27.251,19.411L30.146,17.459L31.3,19.17Z" style="fill:#c480ad;fill-rule:nonzero;"/>
    <path d="M34.167,17.992L32.194,18.872L28.76,11.173L30.733,10.293L34.167,17.992Z" style="fill:#c480ad;fill-rule:nonzero;"/>
    <path d="M41.562,15.927L34.96,17.496L34.595,15.961L37.075,10.333L33.532,11.175L33.081,9.278L39.421,7.771L39.762,9.207L37.241,14.95L41.112,14.03L41.562,15.927Z" style="fill:#c480ad;fill-rule:nonzero;"/>
    <path d="M49.939,16.036L47.713,15.98L47.296,14.649L44.272,14.573L43.789,15.882L41.563,15.826L45.026,7.466L46.916,7.513L49.939,16.036ZM45.792,10.445L44.929,12.789L46.735,12.834L45.99,10.45L45.904,10.063L45.892,10.063L45.792,10.445Z" style="fill:#c480ad;fill-rule:nonzero;"/>
    <path d="M57.016,18.241L54.683,17.542L54.249,14.6C54.19,14.586 54.107,14.564 54,14.532L53.166,14.282L52.395,16.857L50.326,16.237L52.745,8.161L56.234,9.206C56.79,9.373 57.247,9.636 57.607,9.997C57.967,10.357 58.204,10.781 58.319,11.269C58.434,11.756 58.411,12.268 58.251,12.805C58.097,13.318 57.86,13.726 57.539,14.029C57.219,14.332 56.835,14.541 56.386,14.658L57.016,18.241ZM54.255,10.649L53.709,12.471L54.939,12.84C55.115,12.893 55.287,12.898 55.454,12.856C55.621,12.814 55.766,12.735 55.889,12.617C56.012,12.499 56.099,12.354 56.151,12.182C56.233,11.906 56.21,11.663 56.081,11.453C55.952,11.243 55.759,11.1 55.502,11.023L54.255,10.649Z" style="fill:#c480ad;fill-rule:nonzero;"/>
    <path d="M57.455,18.478L61.956,11.354L64.638,13.049C65.328,13.485 65.861,14.039 66.237,14.712C66.614,15.385 66.797,16.098 66.787,16.851C66.777,17.604 66.562,18.313 66.141,18.979C65.72,19.645 65.172,20.145 64.497,20.48C63.822,20.815 63.101,20.958 62.333,20.908C61.565,20.858 60.838,20.616 60.152,20.182L57.455,18.478ZM61.305,18.492C61.654,18.712 62.015,18.832 62.391,18.851C62.766,18.871 63.121,18.791 63.454,18.611C63.787,18.432 64.066,18.165 64.29,17.81C64.513,17.458 64.633,17.094 64.651,16.718C64.669,16.341 64.588,15.986 64.408,15.653C64.229,15.32 63.965,15.043 63.617,14.823L62.689,14.237L60.373,17.902L61.305,18.492Z" style="fill:#c480ad;fill-rule:nonzero;"/>
</svg>
